<svg version="1.1" id="Layer_1" xmlns="http://www.w3.org/2000/svg" xmlns:xlink="http://www.w3.org/1999/xlink" x="0px" y="0px"
	 width="100%" viewBox="0 0 2467 870" enable-background="new 0 0 2467 870" xml:space="preserve">
<path fill="#FFFFFF" opacity="1.000000" stroke="none" 
	d="
M1601.000000,871.000000 
	C1067.333374,871.000000 534.166809,871.000000 1.000143,871.000000 
	C1.000095,581.000122 1.000095,291.000183 1.000048,1.000221 
	C823.333191,1.000147 1645.666382,1.000147 2467.999512,1.000074 
	C2467.999756,290.999786 2467.999756,580.999573 2468.000000,870.999634 
	C2179.166748,871.000000 1890.333374,871.000000 1601.000000,871.000000 
M1747.127441,746.983459 
	C1744.375610,746.983459 1741.623779,746.983459 1739.004028,746.983459 
	C1738.710083,744.818359 1738.506592,743.319763 1738.182373,740.932007 
	C1734.329224,743.872986 1731.273804,746.205078 1729.498169,747.560425 
	C1730.777954,751.575317 1732.128052,754.274109 1732.422974,757.083740 
	C1732.906250,761.688904 1732.695190,766.366150 1732.793945,771.012695 
	C1732.876587,774.904297 1734.372681,777.769165 1738.498047,778.622009 
	C1743.007935,779.554321 1745.614624,776.767639 1748.193604,773.815247 
	C1747.250610,773.408569 1746.511353,773.516052 1745.777710,773.652649 
	C1739.697754,774.784851 1737.854736,773.359253 1737.712280,767.110291 
	C1737.629028,763.461609 1738.082275,759.789612 1737.839966,756.158386 
	C1737.553955,751.873108 1738.934204,749.973083 1743.456421,750.623169 
	C1744.883057,750.828247 1746.448608,750.066162 1748.747559,749.517090 
	C1751.844360,749.509094 1753.478882,751.037537 1754.413940,754.030762 
	C1756.291016,760.039551 1758.235718,766.058655 1760.680298,771.850708 
	C1763.776978,779.187561 1760.686401,782.518799 1755.839966,787.526855 
	C1754.255615,789.164124 1751.614624,789.778809 1749.459229,790.859985 
	C1751.587524,794.943420 1754.690186,795.725830 1757.972168,792.558350 
	C1760.068237,790.535522 1761.879639,787.975098 1763.094971,785.323853 
	C1768.906982,772.644836 1774.471924,759.852417 1780.271240,746.769470 
	C1776.559814,746.966125 1772.245117,745.850586 1768.540161,747.121704 
	C1770.280029,749.187866 1773.146484,751.252808 1772.819092,752.429382 
	C1771.207764,758.221741 1768.749023,763.778320 1766.589478,769.418213 
	C1766.086426,769.406677 1765.583374,769.395142 1765.080322,769.383667 
	C1763.916748,765.690247 1762.734009,762.002625 1761.594727,758.301758 
	C1760.356689,754.279785 1757.839111,750.009583 1764.432129,747.376221 
	C1764.140503,747.036987 1763.848877,746.697815 1763.557251,746.358582 
	C1758.370728,746.669128 1753.184326,746.979614 1747.127441,746.983459 
M457.141296,757.270752 
	C462.355591,758.337097 467.555206,759.482361 472.786499,760.457397 
	C518.808289,769.035645 565.175903,772.775879 611.969299,770.066223 
	C641.986938,768.327881 671.443909,763.005066 700.468140,755.316040 
	C745.880188,743.285645 788.999756,725.168945 831.419800,705.300232 
	C846.032715,698.455872 861.003418,692.041870 874.674133,683.592468 
	C899.035767,668.535461 914.155518,647.438904 913.316956,617.108032 
	C912.726868,595.764526 897.302673,567.691284 867.990723,561.933655 
	C849.634399,558.328003 831.645081,560.193787 814.227173,565.594360 
	C786.998962,574.036743 759.731384,581.969055 731.364258,585.543335 
	C722.030579,586.719299 712.711792,588.013916 702.817017,589.330078 
	C703.415649,587.322815 703.703552,586.216797 704.073242,585.138794 
	C713.345093,558.098755 702.977295,527.521057 679.446350,511.420868 
	C665.813538,502.093170 650.196594,500.295441 634.500061,497.967865 
	C601.588318,493.087372 568.680176,488.106750 535.910461,482.367859 
	C506.279480,477.178558 477.244781,468.935974 447.046387,466.520935 
	C418.043579,464.201508 389.506042,464.913422 361.520172,473.624054 
	C356.341675,475.235870 351.155457,476.822937 345.904785,478.442444 
	C345.512512,477.324585 345.267029,476.712524 345.081207,476.082886 
	C338.944000,455.286560 322.037079,442.053528 300.466736,441.914673 
	C268.473846,441.708710 236.478226,441.890259 204.483871,441.954926 
	C196.600433,441.970856 189.397095,444.452271 182.848755,448.719330 
	C167.656311,458.619080 160.612000,472.604156 160.652191,490.832855 
	C160.839249,575.652405 160.734009,660.472656 160.741791,745.292603 
	C160.741989,747.458069 160.782806,749.626648 160.900528,751.788513 
	C162.104767,773.904114 181.220459,793.519470 203.319153,794.104919 
	C228.463226,794.770996 253.633438,794.582336 278.791870,794.536255 
	C302.418793,794.492981 319.006744,780.088745 324.426788,761.604858 
	C327.056213,752.637756 327.084717,742.891418 328.118927,733.479065 
	C328.784027,727.425781 329.136475,721.338257 329.707428,714.300171 
	C370.858521,733.344849 412.480164,748.565552 457.141296,757.270752 
M549.067261,384.433899 
	C612.332458,446.915344 725.319092,419.353943 746.872070,324.301910 
	C752.932251,323.747345 759.106934,323.567352 765.144714,322.563782 
	C792.729675,317.978912 816.089539,305.218536 834.961426,284.721222 
	C863.120483,254.136871 872.939087,218.153229 862.717529,177.885132 
	C847.115845,116.421677 789.126099,78.997284 727.112366,91.037933 
	C679.516602,100.279167 649.098022,129.880096 635.316528,176.285690 
	C633.835388,181.273056 632.089844,183.027252 626.746155,183.173904 
	C605.144226,183.766800 585.062622,189.815308 567.099365,202.039673 
	C532.387573,225.661911 514.008240,258.570587 513.584900,300.526428 
	C513.257202,333.014160 525.574951,360.881866 549.067261,384.433899 
M1887.199097,218.802078 
	C1886.269043,234.826065 1887.898682,250.391342 1895.115479,265.041901 
	C1911.904663,299.125275 1951.218994,311.451233 1983.481201,292.351562 
	C1989.041626,289.059662 1993.643311,284.148071 1998.397705,280.224060 
	C1998.397705,289.111298 1999.160400,298.442627 1998.234863,307.603424 
	C1996.445435,325.316589 1987.021851,335.159515 1969.306519,337.311157 
	C1955.010132,339.047546 1940.974121,336.563446 1932.577637,323.494507 
	C1928.649658,317.380493 1924.856201,315.777283 1918.408081,316.279907 
	C1912.279175,316.757660 1906.083740,316.382751 1899.917603,316.382751 
	C1897.821289,316.382751 1895.725098,316.382751 1893.197754,316.382751 
	C1895.075439,333.555847 1902.715820,346.381561 1916.230225,355.684021 
	C1933.257935,367.404755 1952.510498,370.224304 1972.529419,368.794250 
	C1993.062988,367.327393 2010.628296,359.586182 2022.927368,342.281799 
	C2031.844849,329.735199 2035.189331,315.483093 2035.189941,300.290771 
	C2035.192017,253.961243 2035.199707,207.631699 2035.192627,161.302170 
	C2035.192505,159.842285 2035.055298,158.382431 2034.974243,156.768005 
	C2022.928101,156.768005 2011.197021,156.768005 1998.898926,156.768005 
	C1998.898926,163.171371 1998.898926,169.198532 1998.898926,175.735291 
	C1997.886719,175.008362 1997.416016,174.806030 1997.139160,174.452026 
	C1977.851562,149.782379 1937.693604,148.250229 1913.989380,166.625320 
	C1897.260742,179.592941 1889.701904,197.421341 1887.199097,218.802078 
M977.814758,419.500000 
	C977.814697,537.133240 977.779541,654.766541 977.927673,772.399597 
	C977.934448,777.771362 979.058838,783.305969 980.650330,788.459717 
	C981.928772,792.600037 984.828918,796.254333 989.993530,796.225159 
	C995.370667,796.194824 998.338318,792.360229 999.560303,788.034668 
	C1001.117859,782.521301 1002.080383,776.639771 1002.083557,770.916321 
	C1002.204468,551.478577 1002.186279,332.040802 1002.181213,112.602997 
	C1002.181152,110.104408 1002.481018,107.529800 1001.988403,105.124298 
	C1001.162415,101.090668 1000.532898,96.721375 998.453369,93.332321 
	C996.756470,90.566727 993.323792,87.987762 990.189331,87.198753 
	C986.008057,86.146248 982.653076,89.551277 981.470154,93.226959 
	C979.668152,98.825943 977.975220,104.780533 977.963562,110.587570 
	C977.757935,213.224747 977.814636,315.862427 977.814758,419.500000 
M1628.243164,235.825195 
	C1629.614990,220.803040 1627.822632,206.229080 1621.805176,192.320831 
	C1606.428101,156.779083 1563.146851,143.149521 1530.865479,163.839539 
	C1525.936401,166.998718 1521.751343,171.318726 1516.721191,175.520355 
	C1516.721191,170.387024 1516.551270,165.475632 1516.780396,160.582901 
	C1516.935913,157.262985 1515.710693,156.256271 1512.468628,156.321060 
	C1503.644409,156.497391 1494.805542,156.613281 1485.990112,156.282883 
	C1481.610474,156.118744 1480.378052,157.366821 1480.387939,161.833786 
	C1480.535034,228.291656 1480.485840,294.749969 1480.498779,361.208191 
	C1480.499146,362.974640 1480.676147,364.741058 1480.774414,366.576233 
	C1492.927612,366.576233 1504.519165,366.576233 1516.880127,366.576233 
	C1516.880127,337.716339 1516.880127,309.116058 1516.880127,279.877716 
	C1518.072144,280.782135 1518.514160,281.024780 1518.838013,281.376343 
	C1538.723633,302.974304 1570.880615,307.781616 1595.843140,292.458984 
	C1616.519531,279.767334 1625.630737,260.079468 1628.243164,235.825195 
M1556.777954,481.773407 
	C1547.700684,460.563690 1532.469971,446.274994 1509.417480,442.325287 
	C1486.685669,438.430511 1466.762207,444.661102 1450.500854,463.665436 
	C1450.500854,456.186188 1450.500854,450.241547 1450.500854,444.197571 
	C1438.322998,444.197571 1426.601929,444.197571 1414.778198,444.197571 
	C1414.778198,514.140869 1414.778198,583.719543 1414.778198,653.571777 
	C1426.711304,653.571777 1438.299683,653.571777 1450.718506,653.571777 
	C1450.718506,624.808716 1450.718506,596.189087 1450.718506,566.908020 
	C1451.982910,567.797485 1452.452881,568.004333 1452.752197,568.356201 
	C1478.083252,598.140564 1529.575317,594.673889 1551.009521,558.164185 
	C1565.161987,534.057617 1565.859375,508.581146 1556.777954,481.773407 
M1741.279541,489.876678 
	C1737.733521,502.767120 1737.026978,515.881653 1739.227783,528.998047 
	C1743.360962,553.630249 1755.083130,572.978088 1778.849976,583.382996 
	C1799.620117,592.475952 1831.841797,589.909973 1848.131714,567.557373 
	C1848.438599,567.136475 1849.105835,566.978210 1850.284302,566.315063 
	C1850.284302,573.247192 1850.284302,579.494141 1850.284302,585.652100 
	C1862.543701,585.652100 1874.295532,585.652100 1885.909058,585.652100 
	C1885.909058,522.252808 1885.909058,459.202332 1885.909058,396.248840 
	C1873.767822,396.248840 1862.044312,396.248840 1849.722290,396.248840 
	C1849.722290,418.326569 1849.722290,439.996338 1849.722290,462.195038 
	C1848.673218,461.440460 1848.224976,461.218170 1847.907227,460.874939 
	C1831.984375,443.667175 1812.093262,438.225189 1789.722168,442.800079 
	C1764.245728,448.010071 1749.129028,464.858612 1741.279541,489.876678 
M1210.270386,119.379456 
	C1200.005249,119.379456 1189.739990,119.379456 1178.915527,119.379456 
	C1178.915527,144.418564 1178.915527,168.640396 1178.915527,192.769806 
	C1153.108276,192.769806 1127.881714,192.769806 1102.062866,192.769806 
	C1102.062866,168.202011 1102.062866,143.994553 1102.062866,119.772034 
	C1089.899902,119.772034 1078.338135,119.772034 1066.697510,119.772034 
	C1066.697510,179.684769 1066.697510,239.203781 1066.697510,298.694336 
	C1078.685059,298.694336 1090.277832,298.694336 1102.407104,298.694336 
	C1102.407104,273.324097 1102.407104,248.257950 1102.407104,223.162994 
	C1128.193848,223.162994 1153.436768,223.162994 1179.242188,223.162994 
	C1179.242188,248.524643 1179.242188,273.578369 1179.242188,298.592163 
	C1191.521729,298.592163 1203.231812,298.592163 1215.143677,298.592163 
	C1215.143677,239.714874 1215.123047,181.248489 1215.200317,122.782249 
	C1215.204468,119.617714 1213.692993,119.157211 1210.270386,119.379456 
M1215.143555,497.500000 
	C1215.143555,467.409576 1215.143555,437.319122 1215.143555,407.112518 
	C1202.861572,407.112518 1191.278442,407.112518 1179.042114,407.112518 
	C1179.042114,431.598663 1179.042114,455.812744 1179.042114,479.988922 
	C1153.156860,479.988922 1127.929199,479.988922 1102.201172,479.988922 
	C1102.201172,455.524323 1102.201172,431.444489 1102.201172,407.265015 
	C1090.010376,407.265015 1078.329346,407.265015 1066.570923,407.265015 
	C1066.570923,466.952850 1066.570923,526.207336 1066.570923,585.651367 
	C1078.549683,585.651367 1090.261475,585.651367 1102.534180,585.651367 
	C1102.534180,560.248657 1102.534180,535.193359 1102.534180,510.225891 
	C1128.336670,510.225891 1153.573120,510.225891 1179.376343,510.225891 
	C1179.376343,535.657532 1179.376343,560.716125 1179.376343,585.692078 
	C1191.547852,585.692078 1203.145386,585.692078 1215.143677,585.692078 
	C1215.143677,556.422180 1215.143677,527.461060 1215.143555,497.500000 
M1912.343506,518.243042 
	C1913.078003,533.140930 1916.839233,547.062317 1924.905884,559.807068 
	C1946.763062,594.339539 1997.449097,597.974060 2022.018555,568.386475 
	C2022.453003,567.863525 2023.200317,567.600525 2024.580322,566.718323 
	C2024.580322,573.619202 2024.580322,579.690735 2024.580322,585.654907 
	C2036.884033,585.654907 2048.625977,585.654907 2060.405273,585.654907 
	C2060.405273,538.267212 2060.405273,491.228424 2060.405273,444.173492 
	C2048.277100,444.173492 2036.534912,444.173492 2024.278564,444.173492 
	C2024.278564,450.386932 2024.278564,456.278656 2024.278564,463.310730 
	C2012.960449,450.660400 2000.304199,442.911163 1984.141846,441.579071 
	C1964.256226,439.940125 1946.821167,445.224335 1932.760498,459.615021 
	C1917.130005,475.612457 1911.942017,495.523041 1912.343506,518.243042 
M2278.498047,541.138184 
	C2272.668213,541.138245 2266.826172,540.930298 2261.015381,541.262695 
	C2259.226562,541.364990 2256.718262,542.484497 2255.900879,543.915771 
	C2245.600586,561.946838 2220.530029,561.329834 2208.421631,552.085876 
	C2199.838379,545.533264 2195.510010,536.937805 2194.955811,525.604370 
	C2197.452393,525.604370 2199.415527,525.604309 2201.378662,525.604309 
	C2232.193848,525.604309 2263.008789,525.607422 2293.823975,525.598572 
	C2296.266357,525.597900 2298.897217,526.188782 2299.148193,522.252258 
	C2300.046875,508.157898 2299.636475,494.227081 2293.897949,481.032227 
	C2284.429688,459.262054 2267.511230,446.496643 2244.433350,442.682281 
	C2216.796143,438.114349 2191.723877,443.597412 2173.368652,466.514221 
	C2159.112549,484.313690 2155.900635,505.430450 2159.061279,527.496887 
	C2162.988525,554.915955 2176.887207,575.340759 2203.932129,583.982666 
	C2231.779297,592.880859 2257.989502,589.533020 2279.966064,568.353943 
	C2287.601562,560.995728 2293.021729,552.112854 2295.866699,541.138245 
	C2290.078613,541.138245 2284.787598,541.138245 2278.498047,541.138184 
M1590.282349,556.182922 
	C1606.846069,583.867371 1639.519287,593.172302 1670.721191,585.955627 
	C1696.046753,580.098083 1714.545776,557.461609 1716.754150,541.143555 
	C1704.905518,541.143555 1693.104736,541.046814 1681.309937,541.271179 
	C1679.900757,541.297913 1678.093750,542.777283 1677.200562,544.082520 
	C1668.686890,556.523071 1655.182007,561.396545 1640.473633,557.137756 
	C1626.227417,553.012817 1617.017456,541.154297 1616.516479,525.720703 
	C1650.912354,525.720703 1685.296875,525.720703 1720.256958,525.720703 
	C1722.396118,506.923370 1721.021362,489.336792 1711.344238,473.165161 
	C1698.097290,451.028259 1677.421753,442.178101 1652.685181,441.252777 
	C1622.050537,440.106750 1596.550293,455.320007 1585.934082,481.832397 
	C1575.935303,506.802948 1577.002930,531.598999 1590.282349,556.182922 
M1336.757080,260.160950 
	C1328.000977,272.591736 1309.677124,273.584991 1298.199463,268.741455 
	C1285.888306,263.546234 1277.338013,250.386871 1278.751221,238.604431 
	C1295.794434,238.604431 1312.908325,238.604416 1330.022095,238.604416 
	C1347.263184,238.604416 1364.504150,238.604431 1382.012329,238.604431 
	C1384.299438,220.066147 1382.829346,202.869705 1373.668579,187.104294 
	C1359.744629,163.141449 1337.566406,154.184555 1311.058594,154.302582 
	C1292.828979,154.383728 1276.213379,159.716675 1262.810181,172.674942 
	C1245.035645,189.859482 1239.955688,211.579269 1241.671631,235.301056 
	C1243.265869,257.339630 1252.224731,275.703705 1270.600220,288.762817 
	C1284.958008,298.966553 1301.200439,301.976166 1318.470093,301.021027 
	C1341.761719,299.732849 1359.746948,289.230377 1372.356201,269.749634 
	C1375.324097,265.164398 1377.148438,259.839081 1379.836548,254.138214 
	C1368.117798,254.138214 1357.793457,254.392105 1347.490967,254.026566 
	C1342.646973,253.854691 1339.069824,254.808853 1336.757080,260.160950 
M1248.090332,482.598694 
	C1245.989136,491.785645 1242.652100,500.886261 1242.003174,510.174652 
	C1239.367432,547.902771 1260.828979,581.956848 1302.333374,587.427246 
	C1325.781616,590.517700 1347.683472,585.987915 1365.366699,569.211609 
	C1387.630127,548.089844 1392.353638,521.698914 1385.182129,492.982300 
	C1377.858887,463.657654 1353.770386,444.711548 1321.737305,441.580414 
	C1290.027954,438.481018 1262.127686,453.805237 1248.090332,482.598694 
M1826.061157,267.500000 
	C1826.061157,277.916687 1826.061157,288.333405 1826.061157,298.691162 
	C1838.444458,298.691162 1850.033081,298.691162 1861.510254,298.691162 
	C1861.741211,298.086700 1861.955322,297.788788 1861.955078,297.491058 
	C1861.924194,267.841644 1863.121948,238.126236 1861.555420,208.557373 
	C1858.822144,156.962875 1811.501343,146.520401 1782.350220,159.278625 
	C1775.243042,162.389145 1769.104370,167.712860 1762.313599,172.154221 
	C1762.313599,167.397690 1762.313599,162.185333 1762.313599,156.791870 
	C1750.037964,156.791870 1738.327759,156.791870 1726.479004,156.791870 
	C1726.479004,204.280319 1726.479004,251.357681 1726.479004,298.690186 
	C1738.438232,298.690186 1750.149170,298.690186 1762.230957,298.690186 
	C1762.230957,296.575714 1762.230835,294.770874 1762.230835,292.966064 
	C1762.231201,269.310791 1762.196533,245.655396 1762.269409,222.000336 
	C1762.280640,218.351654 1762.540649,214.666214 1763.102661,211.062820 
	C1766.732422,187.793228 1795.865967,176.731979 1814.364014,191.475891 
	C1823.123047,198.457275 1825.735107,208.082901 1825.928223,218.525040 
	C1826.224243,234.512024 1826.040649,250.507904 1826.061157,267.500000 
M2105.539551,586.002808 
	C2114.276367,586.002808 2123.013184,586.002808 2131.680420,586.002808 
	C2131.680420,522.233948 2131.680420,459.345490 2131.680420,396.212250 
	C2119.722656,396.212250 2108.037354,396.212250 2096.298828,396.212250 
	C2096.298828,459.597321 2096.298828,522.601562 2096.298828,586.002808 
	C2099.282715,586.002808 2101.917969,586.002808 2105.539551,586.002808 
M1409.157593,168.500000 
	C1409.157593,211.900421 1409.157593,255.300827 1409.157593,298.728638 
	C1421.477417,298.728638 1433.069214,298.728638 1444.873169,298.728638 
	C1444.873169,235.428925 1444.873169,172.402237 1444.873169,109.226845 
	C1432.901855,109.226845 1421.213257,109.226845 1409.158203,109.226845 
	C1409.158203,128.911758 1409.158203,148.205872 1409.157593,168.500000 
M1656.978149,156.413177 
	C1656.297119,158.178955 1655.025757,159.943268 1655.021240,161.710754 
	C1654.911377,205.701797 1654.932617,249.693161 1654.945557,293.684479 
	C1654.946045,295.298889 1655.099365,296.913239 1655.185303,298.604004 
	C1667.237061,298.604004 1678.937744,298.604004 1690.488037,298.604004 
	C1690.686035,298.052032 1690.787964,297.900696 1690.788086,297.749237 
	C1690.842285,251.761688 1690.867920,205.774078 1690.983276,159.786713 
	C1690.991211,156.613342 1689.332764,156.341751 1686.887817,156.355957 
	C1677.223389,156.412094 1667.558472,156.381256 1656.978149,156.413177 
M1665.450317,138.240540 
	C1676.760986,142.718094 1690.457153,136.465851 1694.085083,125.356369 
	C1697.623779,114.520569 1692.389038,103.091690 1681.951294,99.093285 
	C1670.299072,94.629715 1656.721802,99.944931 1652.446167,110.643974 
	C1648.052979,121.637131 1653.088135,132.889282 1665.450317,138.240540 
M1601.501221,758.777222 
	C1600.559326,765.344055 1603.710938,772.737000 1597.678589,778.800781 
	C1602.120117,778.306885 1606.561523,777.812988 1611.002930,777.319092 
	C1611.142700,776.719910 1611.282349,776.120789 1611.422119,775.521606 
	C1606.075562,775.492737 1606.154419,772.188354 1606.390747,768.715088 
	C1606.616333,765.400391 1606.735474,762.078369 1606.891357,758.759094 
	C1607.121216,753.862549 1610.675049,750.603882 1615.442505,750.928101 
	C1619.212402,751.184509 1621.636475,754.351135 1620.782715,759.456116 
	C1619.760254,765.570374 1623.273926,772.709045 1616.499023,777.892639 
	C1621.401245,777.332642 1626.218018,779.501709 1630.575562,775.879700 
	C1625.335205,775.326904 1625.184814,772.158142 1625.587158,768.337341 
	C1626.056519,763.878906 1626.391113,759.376953 1626.336182,754.899414 
	C1626.253906,748.193848 1620.403564,744.408142 1614.196167,746.922485 
	C1611.764038,747.907654 1609.510132,749.332764 1606.896484,750.703552 
	C1601.062256,743.612366 1594.761841,745.723267 1588.414795,750.607849 
	C1588.001221,748.650513 1587.744019,747.433289 1587.401001,745.810120 
	C1583.948975,746.742004 1580.818115,747.587158 1577.687378,748.432312 
	C1584.784546,752.491333 1581.687622,758.544189 1582.037720,763.363220 
	C1582.401245,768.366638 1583.526245,773.838928 1576.963623,777.481689 
	C1587.832153,778.780212 1590.244263,778.410645 1591.848511,775.115662 
	C1586.545044,775.840088 1587.036621,772.166748 1587.042114,768.988647 
	C1587.048096,765.497925 1587.279663,762.007751 1587.405884,758.517090 
	C1587.570435,753.966125 1590.208862,751.230713 1594.883057,750.956116 
	C1599.731689,750.671265 1601.220703,753.673340 1601.501221,758.777222 
M1530.631226,749.257202 
	C1530.145264,748.208130 1529.497437,746.206116 1529.198486,746.256958 
	C1526.140137,746.777039 1523.138550,747.630432 1520.121094,748.390686 
	C1520.072021,748.803406 1520.022827,749.216125 1519.973755,749.628845 
	C1527.112427,752.356445 1524.124512,758.257202 1524.426392,762.948608 
	C1524.749878,767.978760 1525.922485,773.438599 1520.936035,777.671631 
	C1525.628052,777.250732 1530.387329,779.668701 1534.949829,775.481140 
	C1529.125000,775.940369 1529.574097,772.389832 1529.679443,769.074463 
	C1529.800781,765.249207 1529.857544,761.420776 1530.053467,757.599426 
	C1530.245483,753.854980 1533.792725,751.054993 1538.264282,750.919373 
	C1542.810181,750.781494 1544.089478,753.852356 1544.017090,757.423584 
	C1543.877686,764.291016 1545.975708,771.682495 1540.134277,777.486206 
	C1540.045288,777.574646 1540.350098,778.059570 1540.477173,778.357056 
	C1552.230591,778.315186 1552.230591,778.315186 1552.827026,776.770569 
	C1551.229492,774.546570 1549.178101,772.986633 1549.085693,771.318298 
	C1548.811035,766.356873 1548.923706,761.299011 1549.613770,756.381042 
	C1550.251099,751.837036 1554.377441,751.235168 1558.051758,751.061401 
	C1561.588989,750.894165 1563.272461,753.478333 1563.098389,756.578064 
	C1562.699829,763.677429 1565.810181,771.450134 1557.943237,778.377625 
	C1563.973877,777.663696 1568.639648,779.251587 1573.090088,776.037964 
	C1567.626831,775.463257 1567.861572,771.870911 1568.120605,768.249878 
	C1568.393555,764.433716 1568.691772,760.618652 1568.895142,756.798584 
	C1569.098511,752.976196 1568.503540,749.461670 1564.711670,747.387451 
	C1560.936279,745.322205 1557.394409,745.773132 1553.945068,748.227417 
	C1552.498169,749.256958 1550.897827,750.070618 1549.456543,750.929321 
	C1543.589355,745.074829 1541.222656,744.729736 1534.295166,748.421204 
	C1533.289673,748.957031 1532.216553,749.366028 1530.631226,749.257202 
M1285.637573,778.831970 
	C1298.200073,778.990662 1306.488403,770.454346 1305.288696,758.592957 
	C1304.244873,748.272827 1295.210693,743.631897 1286.445679,748.889160 
	C1285.807495,749.271973 1285.020996,749.407776 1283.795044,749.836060 
	C1284.199219,741.989990 1284.578613,734.622070 1284.991577,726.602600 
	C1280.961914,727.637329 1277.525269,728.519775 1275.284912,729.095032 
	C1276.531006,732.265381 1278.128540,734.498535 1278.178833,736.766174 
	C1278.437744,748.411133 1278.597778,760.076111 1278.164062,771.710693 
	C1277.967896,776.973938 1279.659546,779.105835 1285.637573,778.831970 
M1172.117310,747.077332 
	C1167.773193,747.406067 1163.429199,747.734863 1158.508545,748.107300 
	C1158.785400,741.814758 1159.100830,734.645081 1159.445679,726.805603 
	C1155.707275,727.587280 1152.361572,728.286865 1150.322632,728.713196 
	C1151.429443,732.746948 1152.931396,735.855530 1153.028076,739.007141 
	C1153.343262,749.302612 1153.146362,759.613831 1153.146362,769.918945 
	C1153.146484,779.038696 1153.146362,779.038696 1162.544434,778.885254 
	C1170.093994,778.762024 1176.772949,773.809814 1178.982056,766.697144 
	C1181.467529,758.694214 1179.418091,752.319519 1172.117310,747.077332 
M1076.946899,737.066467 
	C1078.378662,737.140625 1079.810425,737.214844 1081.513550,737.303101 
	C1081.513550,748.380127 1081.519897,759.020874 1081.509521,769.661621 
	C1081.506470,772.738708 1080.218872,774.670288 1076.927490,775.111877 
	C1075.975220,775.239624 1075.126343,776.139404 1074.229980,776.685242 
	C1074.370728,777.170593 1074.511353,777.655884 1074.652100,778.141235 
	C1080.729248,778.141235 1086.808594,778.212585 1092.880127,778.029480 
	C1093.480469,778.011414 1094.033691,776.436279 1094.873291,775.191589 
	C1087.194824,774.673096 1086.901855,774.398315 1086.916626,767.782837 
	C1086.928101,762.624390 1086.939087,757.462952 1087.118408,752.308655 
	C1087.294312,747.249817 1087.682617,742.198364 1087.968872,737.293762 
	C1093.955444,736.572021 1098.070312,737.533997 1099.083984,743.696533 
	C1099.209351,744.458252 1100.552612,745.019714 1101.331421,745.674011 
	C1101.770630,745.052917 1102.615845,744.408936 1102.582275,743.814392 
	C1102.383667,740.281677 1101.981689,736.760376 1101.680664,733.580933 
	C1089.702881,733.580933 1078.657104,733.580933 1067.364624,733.580933 
	C1067.089844,737.797974 1066.839478,741.640198 1066.589233,745.482422 
	C1067.046265,745.674805 1067.503296,745.867188 1067.960449,746.059570 
	C1068.733887,744.945984 1070.040527,743.895630 1070.181641,742.706970 
	C1070.616211,739.044678 1072.729492,737.536377 1076.946899,737.066467 
M1681.912231,766.451721 
	C1682.077515,763.126221 1682.016235,759.769958 1682.463745,756.482849 
	C1683.063477,752.079163 1686.909668,751.486023 1690.255737,751.017517 
	C1693.880371,750.510010 1696.212280,752.827332 1696.057373,756.274475 
	C1695.738037,763.382996 1698.853394,771.212708 1692.278687,777.226624 
	C1692.154541,777.340027 1692.386475,777.842529 1692.568848,778.732666 
	C1697.014648,778.274902 1701.456177,777.817627 1705.897705,777.360352 
	C1706.024292,776.762390 1706.150757,776.164429 1706.277344,775.566406 
	C1700.708740,775.432495 1700.842773,771.916260 1701.113037,768.264465 
	C1701.420166,764.115234 1701.876343,759.960510 1701.874390,755.808411 
	C1701.870605,747.455627 1695.002930,743.570923 1687.825317,747.714050 
	C1686.415161,748.528076 1685.033691,749.391602 1683.352783,750.404846 
	C1682.866699,748.704407 1682.505493,747.440430 1682.069946,745.916565 
	C1678.633667,746.789978 1675.578857,747.566467 1672.524048,748.342896 
	C1679.866943,752.034668 1676.515869,758.226318 1676.867920,763.053711 
	C1677.242554,768.188538 1678.331543,773.781982 1672.910767,777.969543 
	C1677.876587,777.357300 1682.676270,779.424377 1686.779541,775.968933 
	C1680.591675,775.224243 1682.068481,770.851929 1681.912231,766.451721 
M1638.299194,765.365723 
	C1638.299805,766.861755 1638.242065,768.360413 1638.311157,769.853333 
	C1638.683472,777.904541 1644.864258,781.168762 1651.720947,776.971313 
	C1653.509155,775.876648 1655.342285,774.855164 1657.154785,773.799988 
	C1657.055542,774.246704 1656.956421,774.693420 1656.857300,775.140137 
	C1659.105957,776.362915 1661.444824,778.676392 1663.577515,778.499756 
	C1665.682861,778.325378 1667.579712,775.632812 1669.568115,774.044922 
	C1662.393555,774.060547 1661.796753,773.653381 1661.957275,766.937500 
	C1662.121460,760.067139 1662.625610,753.204956 1663.005859,745.858032 
	C1658.963379,746.759766 1655.438477,747.546082 1651.913696,748.332336 
	C1651.657104,748.830872 1651.400635,749.329346 1651.144165,749.827881 
	C1658.450195,750.423889 1656.888428,755.299011 1656.973145,759.356567 
	C1657.021606,761.682678 1657.003052,764.010986 1656.976562,766.337830 
	C1656.928223,770.582764 1653.638428,773.828735 1649.100342,773.916138 
	C1644.270142,774.009216 1643.501343,770.649292 1643.432861,766.850769 
	C1643.408936,765.525391 1643.491211,764.195801 1643.576294,762.871338 
	C1643.931030,757.350037 1644.305420,751.830017 1644.713745,745.689758 
	C1640.776001,746.783447 1637.485718,747.697266 1635.503540,748.247803 
	C1636.765625,751.679504 1638.027466,753.998596 1638.409546,756.454651 
	C1638.811523,759.036865 1638.371704,761.750122 1638.299194,765.365723 
M1486.284058,759.165222 
	C1485.686890,764.369446 1485.514526,769.570129 1489.071655,773.905029 
	C1496.249268,782.651855 1509.573975,779.549133 1514.100220,767.908508 
	C1516.525757,761.670227 1516.122314,755.331299 1511.419067,750.140137 
	C1507.270752,745.561401 1501.874634,745.031433 1496.261475,747.107544 
	C1491.010620,749.049744 1488.163696,753.226074 1486.284058,759.165222 
M1112.769897,746.959839 
	C1105.715698,749.580933 1102.294312,755.013977 1101.856445,762.177124 
	C1101.500366,768.004150 1102.820801,773.487061 1108.364990,776.871094 
	C1113.850464,780.219238 1120.885498,779.266113 1125.823608,774.552673 
	C1131.401001,769.229065 1133.025146,759.333313 1129.381104,752.876221 
	C1126.135620,747.125366 1120.827148,745.086060 1112.769897,746.959839 
M1247.157959,747.086243 
	C1241.407715,744.351807 1236.880981,747.665222 1232.309082,750.282776 
	C1231.739746,750.608826 1231.993896,752.373108 1231.831909,753.769531 
	C1234.883911,752.617676 1236.976196,751.573242 1239.191650,751.048523 
	C1242.990967,750.148682 1245.247070,752.052551 1246.124023,755.674133 
	C1247.024170,759.390747 1245.947754,761.729797 1241.723267,762.189758 
	C1239.602905,762.420654 1237.289917,762.873291 1235.537109,763.977051 
	C1233.398193,765.323975 1230.710205,767.178955 1230.134766,769.318542 
	C1229.172729,772.895020 1231.071167,775.880920 1234.755249,777.725220 
	C1239.634277,780.167664 1242.395386,776.334106 1245.682739,774.318298 
	C1250.985474,780.627075 1254.588135,780.245422 1257.751343,773.309204 
	C1250.698975,773.485229 1250.421265,773.149231 1251.120117,765.874512 
	C1251.454102,762.397583 1252.292847,758.813293 1251.763306,755.457458 
	C1251.320801,752.653625 1249.219116,750.111694 1247.157959,747.086243 
M1193.958984,771.542358 
	C1192.913940,769.685486 1191.515137,767.938904 1190.895264,765.949585 
	C1189.478271,761.401428 1190.356445,760.386902 1195.157593,760.337524 
	C1198.981812,760.298157 1202.816772,760.481873 1206.625610,760.234985 
	C1207.828369,760.157043 1209.566162,759.285400 1210.019043,758.299316 
	C1211.707275,754.623657 1209.325439,749.122559 1205.622437,747.335938 
	C1198.754028,744.021973 1191.124390,747.103394 1186.942627,754.880249 
	C1181.586060,764.841797 1186.276611,776.492188 1196.502441,778.625244 
	C1201.703369,779.710144 1208.222534,776.570984 1208.873657,773.603149 
	C1204.152344,773.105286 1199.340332,772.597839 1193.958984,771.542358 
M1408.460938,776.105042 
	C1409.539062,775.248108 1410.617310,774.391113 1412.269531,773.077881 
	C1406.652710,773.077881 1401.976929,773.944763 1397.824829,772.841431 
	C1393.406738,771.667480 1391.739868,766.175476 1392.913574,760.327209 
	C1397.925903,760.327209 1403.046387,760.170715 1408.151123,760.384521 
	C1411.337158,760.517944 1412.157349,759.026367 1412.190552,756.242432 
	C1412.279297,748.778198 1406.020874,744.237854 1398.569214,746.504272 
	C1392.836670,748.247864 1389.494019,752.452942 1387.510864,757.823669 
	C1385.211060,764.051758 1387.082764,771.559509 1391.740967,775.640015 
	C1396.199097,779.545349 1401.596558,779.845581 1408.460938,776.105042 
M1327.164673,746.166321 
	C1318.886475,746.144409 1312.382568,751.241943 1310.599365,759.149780 
	C1308.261108,769.518799 1314.473999,778.762939 1324.042236,778.785767 
	C1328.493164,778.796326 1332.220215,776.867676 1334.771362,773.014465 
	C1332.304321,772.857788 1330.125000,773.438660 1327.908447,773.766785 
	C1321.264404,774.749817 1317.051270,771.478271 1315.933960,764.867126 
	C1315.397217,761.692261 1316.101318,760.085266 1319.657227,760.292297 
	C1322.812500,760.476013 1326.005615,760.538696 1329.146118,760.256348 
	C1331.271118,760.065247 1334.985352,759.436768 1335.118896,758.564392 
	C1335.540894,755.809937 1335.277710,752.490662 1333.986450,750.083801 
	C1333.008911,748.261841 1330.051880,747.501892 1327.164673,746.166321 
M1468.120850,772.645447 
	C1462.917236,768.295898 1462.778931,762.567261 1464.083008,756.661133 
	C1464.988037,752.561829 1467.451172,749.822266 1472.125977,749.985657 
	C1476.697021,750.145386 1477.113281,753.549683 1477.636963,756.917908 
	C1477.671875,757.142334 1478.116943,757.303040 1479.498535,758.336853 
	C1480.425659,754.440308 1481.219727,751.103516 1481.989258,747.869446 
	C1472.682373,743.999939 1464.216797,746.623474 1459.880981,754.278076 
	C1454.178955,764.344727 1458.832886,776.604126 1469.146851,778.686035 
	C1474.236938,779.713501 1479.798096,776.826294 1480.677856,773.067749 
	C1476.774902,773.067749 1472.787720,773.067749 1468.120850,772.645447 
M1427.911621,760.869995 
	C1427.403198,756.994080 1429.185425,754.097351 1432.695923,753.227173 
	C1434.065918,752.887512 1436.083984,755.162231 1438.733521,756.829102 
	C1439.135864,753.545166 1439.557495,750.103760 1439.979126,746.662354 
	C1439.541992,746.279602 1439.104858,745.896790 1438.667725,745.514038 
	C1435.185303,747.502197 1431.703003,749.490356 1427.945312,751.635681 
	C1427.945312,749.663269 1427.945312,747.922424 1427.945312,745.662903 
	C1424.365967,746.651855 1421.190430,747.529297 1417.723145,748.487305 
	C1419.671265,750.617798 1422.175537,752.130432 1422.077881,753.450867 
	C1421.484375,761.482666 1424.916626,770.066101 1418.626831,778.206909 
	C1424.039062,777.543884 1429.092773,779.167786 1433.867310,776.027588 
	C1427.368164,775.750488 1426.925537,771.964661 1427.620117,767.260925 
	C1427.885986,765.461792 1427.816772,763.613159 1427.911621,760.869995 
M1354.368652,774.013733 
	C1350.858154,773.849365 1349.371948,771.866943 1349.390869,768.503723 
	C1349.411255,764.846436 1349.396240,761.188965 1349.420166,757.531677 
	C1349.464844,750.730347 1349.474365,750.642212 1356.226929,750.834290 
	C1359.141968,750.917175 1360.775391,750.387939 1359.282349,746.802490 
	C1356.401245,746.802490 1353.462646,746.802490 1350.563477,746.802490 
	C1350.325439,744.973999 1350.123291,743.421204 1349.812378,741.033325 
	C1346.045776,743.795166 1342.886230,746.111938 1339.726685,748.428772 
	C1340.369507,748.581055 1341.012329,748.733398 1341.655151,748.885742 
	C1342.483154,751.374390 1343.817871,753.820740 1344.030029,756.360779 
	C1344.430176,761.151733 1344.046753,766.002563 1344.250977,770.817383 
	C1344.406128,774.475769 1345.458252,777.772705 1349.758179,778.630249 
	C1354.215454,779.519104 1357.181396,777.460999 1360.237061,773.127380 
	C1357.877075,773.529663 1356.518311,773.761292 1354.368652,774.013733 
M1382.799438,748.414062 
	C1379.662231,747.670288 1376.525024,746.926575 1373.226196,746.144470 
	C1373.081055,744.924744 1372.899780,743.400513 1372.609253,740.958740 
	C1368.832031,743.822693 1365.713623,746.187134 1362.595337,748.551636 
	C1363.224487,748.679993 1363.853516,748.808411 1364.482666,748.936829 
	C1365.315674,751.421570 1366.674805,753.865112 1366.873413,756.399597 
	C1367.301025,761.854309 1366.977051,767.363770 1367.257080,772.835632 
	C1367.463501,776.868530 1370.200928,778.521362 1373.975098,778.755310 
	C1377.647339,778.982910 1380.917358,776.855530 1382.061768,773.265930 
	C1381.329712,773.350342 1380.716797,773.381775 1380.119751,773.495911 
	C1374.262695,774.616211 1372.343384,773.332092 1372.076538,767.465881 
	C1371.830811,762.065247 1372.024048,756.644714 1372.024048,751.775330 
	C1376.346313,750.745422 1379.505737,749.992615 1382.799438,748.414062 
M1710.709229,777.382446 
	C1714.350952,779.247314 1722.842285,778.195984 1724.523804,775.310486 
	C1719.371826,775.525391 1719.519409,772.083008 1719.683960,768.588440 
	C1720.032715,761.183105 1720.350708,753.776367 1720.698730,745.980164 
	C1716.991699,746.860229 1713.677368,747.647034 1711.654541,748.127258 
	C1712.859375,751.560120 1714.183594,753.892151 1714.420288,756.329712 
	C1714.819702,760.442200 1714.322510,764.635132 1714.593262,768.768616 
	C1714.823486,772.279907 1713.812256,774.900879 1710.709229,777.382446 
M1789.443970,777.095947 
	C1791.105713,774.483887 1790.831665,772.092651 1787.770264,771.187500 
	C1786.367676,770.772888 1784.014404,771.464233 1783.000244,772.523315 
	C1782.211548,773.347107 1782.374268,776.671204 1782.904053,776.880127 
	C1784.738281,777.603149 1786.917725,777.450439 1789.443970,777.095947 
M1714.339722,731.757202 
	C1714.593628,733.627197 1714.847534,735.497192 1715.101318,737.367249 
	C1716.607056,737.121033 1718.802002,737.382385 1719.449097,736.503784 
	C1720.311279,735.333252 1719.969482,733.275879 1720.144897,731.599426 
	C1718.384766,731.491089 1716.624756,731.382751 1714.339722,731.757202 
z"/>
<path fill="#4167CF" opacity="1.000000" stroke="none" 
	d="
M456.728394,757.186157 
	C412.480164,748.565552 370.858521,733.344849 329.707428,714.300171 
	C329.136475,721.338257 328.784027,727.425781 328.118927,733.479065 
	C327.084717,742.891418 327.056213,752.637756 324.426788,761.604858 
	C319.006744,780.088745 302.418793,794.492981 278.791870,794.536255 
	C253.633438,794.582336 228.463226,794.770996 203.319153,794.104919 
	C181.220459,793.519470 162.104767,773.904114 160.900528,751.788513 
	C160.782806,749.626648 160.741989,747.458069 160.741791,745.292603 
	C160.734009,660.472656 160.839249,575.652405 160.652191,490.832855 
	C160.612000,472.604156 167.656311,458.619080 182.848755,448.719330 
	C189.397095,444.452271 196.600433,441.970856 204.483871,441.954926 
	C236.478226,441.890259 268.473846,441.708710 300.466736,441.914673 
	C322.037079,442.053528 338.944000,455.286560 345.081207,476.082886 
	C345.267029,476.712524 345.512512,477.324585 345.904785,478.442444 
	C351.155457,476.822937 356.341675,475.235870 361.520172,473.624054 
	C389.506042,464.913422 418.043579,464.201508 447.046387,466.520935 
	C477.244781,468.935974 506.279480,477.178558 535.910461,482.367859 
	C568.680176,488.106750 601.588318,493.087372 634.500061,497.967865 
	C650.196594,500.295441 665.813538,502.093170 679.446350,511.420868 
	C702.977295,527.521057 713.345093,558.098755 704.073242,585.138794 
	C703.703552,586.216797 703.415649,587.322815 702.817017,589.330078 
	C712.711792,588.013916 722.030579,586.719299 731.364258,585.543335 
	C759.731384,581.969055 786.998962,574.036743 814.227173,565.594360 
	C831.645081,560.193787 849.634399,558.328003 867.990723,561.933655 
	C897.302673,567.691284 912.726868,595.764526 913.316956,617.108032 
	C914.155518,647.438904 899.035767,668.535461 874.674133,683.592468 
	C861.003418,692.041870 846.032715,698.455872 831.419800,705.300232 
	C788.999756,725.168945 745.880188,743.285645 700.468140,755.316040 
	C671.443909,763.005066 641.986938,768.327881 611.969299,770.066223 
	C565.175903,772.775879 518.808289,769.035645 472.786499,760.457397 
	C467.555206,759.482361 462.355591,758.337097 456.728394,757.186157 
M593.290039,588.777832 
	C598.448059,588.501282 603.663818,588.617737 608.752869,587.871155 
	C621.576172,585.989685 634.460815,584.249268 647.091858,581.427124 
	C656.233398,579.384583 660.934937,571.667175 660.266602,562.746338 
	C659.659607,554.644653 653.686035,548.344299 644.741028,546.915710 
	C635.539185,545.445984 626.240173,544.572815 617.052246,543.030334 
	C578.661804,536.585510 540.159241,530.690796 501.970856,523.201721 
	C475.785919,518.066589 449.735229,512.989502 422.978485,512.227966 
	C397.459106,511.501709 373.616333,518.162598 350.162872,527.379395 
	C344.888550,529.452087 343.425110,532.352844 343.053253,537.520630 
	C340.279663,576.065369 337.305725,614.596069 334.284973,653.122498 
	C333.356628,664.961975 333.192261,664.969055 344.149719,669.635925 
	C371.261871,681.183105 398.197357,693.140137 426.647675,701.258667 
	C458.254272,710.277832 490.302856,716.830811 522.995667,720.308105 
	C554.365845,723.644653 585.802307,725.489136 617.274170,722.721497 
	C661.377258,718.842957 703.958130,707.989319 744.770386,691.105652 
	C778.758362,677.045105 812.125488,661.468384 845.612366,646.222412 
	C854.200745,642.312256 861.534912,636.397644 865.242981,627.164917 
	C869.543884,616.455872 863.795776,607.270752 852.412415,607.132324 
	C847.128662,607.068054 841.654846,607.381042 836.575989,608.706421 
	C823.546936,612.106628 810.750427,616.388123 797.754333,619.925903 
	C759.044678,630.463501 719.504211,635.613708 679.538452,638.297607 
	C627.140747,641.816345 574.996460,640.061218 523.079773,632.114624 
	C509.133240,629.979980 500.260376,618.367920 502.277100,605.192139 
	C504.308289,591.921875 515.897888,584.114502 530.020142,585.222656 
	C550.756592,586.849792 571.557800,587.652527 593.290039,588.777832 
M248.499512,747.720154 
	C258.917938,747.720154 269.336395,747.720154 279.970337,747.720154 
	C286.603790,660.830994 293.172852,574.785828 299.726196,488.946167 
	C268.655762,488.946167 238.256378,488.946167 207.717361,488.946167 
	C207.717361,575.512207 207.717361,661.531860 207.717361,747.722900 
	C221.208191,747.722900 234.353851,747.722900 248.499512,747.720154 
z"/>
<path fill="#4167CF" opacity="1.000000" stroke="none" 
	d="
M548.814209,384.185486 
	C525.574951,360.881866 513.257202,333.014160 513.584900,300.526428 
	C514.008240,258.570587 532.387573,225.661911 567.099365,202.039673 
	C585.062622,189.815308 605.144226,183.766800 626.746155,183.173904 
	C632.089844,183.027252 633.835388,181.273056 635.316528,176.285690 
	C649.098022,129.880096 679.516602,100.279167 727.112366,91.037933 
	C789.126099,78.997284 847.115845,116.421677 862.717529,177.885132 
	C872.939087,218.153229 863.120483,254.136871 834.961426,284.721222 
	C816.089539,305.218536 792.729675,317.978912 765.144714,322.563782 
	C759.106934,323.567352 752.932251,323.747345 746.872070,324.301910 
	C725.319092,419.353943 612.332458,446.915344 548.814209,384.185486 
M700.231628,286.498535 
	C693.625610,258.175507 676.541870,239.565720 648.288086,232.352432 
	C621.028442,225.392929 597.581238,233.029266 578.652893,253.683853 
	C558.673523,275.485382 554.965515,308.430603 569.108215,334.094666 
	C583.774780,360.709412 613.590698,375.115295 643.229858,369.907318 
	C682.086060,363.079834 708.303345,325.206543 700.231628,286.498535 
M799.414673,157.091965 
	C784.548828,142.448212 766.802979,135.306244 745.824097,135.868240 
	C715.442810,136.682114 686.897156,159.966721 680.285645,189.551834 
	C679.663269,192.336563 680.261780,193.650208 682.847961,194.959488 
	C715.124878,211.299789 735.876282,237.072693 745.138062,272.002289 
	C746.212097,276.052826 748.084778,277.309479 752.091675,276.977386 
	C767.737183,275.680603 781.185730,269.434174 793.303162,259.682770 
	C825.333435,233.906708 828.418213,187.091522 799.414673,157.091965 
z"/>
<path fill="#4268CF" opacity="1.000000" stroke="none" 
	d="
M1887.223145,218.338898 
	C1889.701904,197.421341 1897.260742,179.592941 1913.989380,166.625320 
	C1937.693604,148.250229 1977.851562,149.782379 1997.139160,174.452026 
	C1997.416016,174.806030 1997.886719,175.008362 1998.898926,175.735291 
	C1998.898926,169.198532 1998.898926,163.171371 1998.898926,156.768005 
	C2011.197021,156.768005 2022.928101,156.768005 2034.974243,156.768005 
	C2035.055298,158.382431 2035.192505,159.842285 2035.192627,161.302170 
	C2035.199707,207.631699 2035.192017,253.961243 2035.189941,300.290771 
	C2035.189331,315.483093 2031.844849,329.735199 2022.927368,342.281799 
	C2010.628296,359.586182 1993.062988,367.327393 1972.529419,368.794250 
	C1952.510498,370.224304 1933.257935,367.404755 1916.230225,355.684021 
	C1902.715820,346.381561 1895.075439,333.555847 1893.197754,316.382751 
	C1895.725098,316.382751 1897.821289,316.382751 1899.917603,316.382751 
	C1906.083740,316.382751 1912.279175,316.757660 1918.408081,316.279907 
	C1924.856201,315.777283 1928.649658,317.380493 1932.577637,323.494507 
	C1940.974121,336.563446 1955.010132,339.047546 1969.306519,337.311157 
	C1987.021851,335.159515 1996.445435,325.316589 1998.234863,307.603424 
	C1999.160400,298.442627 1998.397705,289.111298 1998.397705,280.224060 
	C1993.643311,284.148071 1989.041626,289.059662 1983.481201,292.351562 
	C1951.218994,311.451233 1911.904663,299.125275 1895.115479,265.041901 
	C1887.898682,250.391342 1886.269043,234.826065 1887.223145,218.338898 
M1991.942749,253.334656 
	C1999.016479,242.179337 2000.376831,229.972900 1997.966675,217.323395 
	C1995.278198,203.212692 1987.383057,192.858124 1973.604370,188.157959 
	C1959.582764,183.374832 1946.491699,185.909729 1935.682739,196.283463 
	C1925.263794,206.282867 1922.926758,219.205368 1924.048462,233.042435 
	C1925.368286,249.325714 1936.054321,263.346710 1950.561035,267.846863 
	C1966.381104,272.754395 1980.397095,268.000305 1991.942749,253.334656 
z"/>
<path fill="#4167CF" opacity="1.000000" stroke="none" 
	d="
M977.814697,419.000000 
	C977.814636,315.862427 977.757935,213.224747 977.963562,110.587570 
	C977.975220,104.780533 979.668152,98.825943 981.470154,93.226959 
	C982.653076,89.551277 986.008057,86.146248 990.189331,87.198753 
	C993.323792,87.987762 996.756470,90.566727 998.453369,93.332321 
	C1000.532898,96.721375 1001.162415,101.090668 1001.988403,105.124298 
	C1002.481018,107.529800 1002.181152,110.104408 1002.181213,112.602997 
	C1002.186279,332.040802 1002.204468,551.478577 1002.083557,770.916321 
	C1002.080383,776.639771 1001.117859,782.521301 999.560303,788.034668 
	C998.338318,792.360229 995.370667,796.194824 989.993530,796.225159 
	C984.828918,796.254333 981.928772,792.600037 980.650330,788.459717 
	C979.058838,783.305969 977.934448,777.771362 977.927673,772.399597 
	C977.779541,654.766541 977.814697,537.133240 977.814697,419.000000 
z"/>
<path fill="#4268D0" opacity="1.000000" stroke="none" 
	d="
M1628.213257,236.275330 
	C1625.630737,260.079468 1616.519531,279.767334 1595.843140,292.458984 
	C1570.880615,307.781616 1538.723633,302.974304 1518.838013,281.376343 
	C1518.514160,281.024780 1518.072144,280.782135 1516.880127,279.877716 
	C1516.880127,309.116058 1516.880127,337.716339 1516.880127,366.576233 
	C1504.519165,366.576233 1492.927612,366.576233 1480.774414,366.576233 
	C1480.676147,364.741058 1480.499146,362.974640 1480.498779,361.208191 
	C1480.485840,294.749969 1480.535034,228.291656 1480.387939,161.833786 
	C1480.378052,157.366821 1481.610474,156.118744 1485.990112,156.282883 
	C1494.805542,156.613281 1503.644409,156.497391 1512.468628,156.321060 
	C1515.710693,156.256271 1516.935913,157.262985 1516.780396,160.582901 
	C1516.551270,165.475632 1516.721191,170.387024 1516.721191,175.520355 
	C1521.751343,171.318726 1525.936401,166.998718 1530.865479,163.839539 
	C1563.146851,143.149521 1606.428101,156.779083 1621.805176,192.320831 
	C1627.822632,206.229080 1629.614990,220.803040 1628.213257,236.275330 
M1591.882690,229.292389 
	C1591.582031,225.316544 1591.575806,221.292404 1590.933350,217.372604 
	C1586.436890,189.943359 1555.404175,176.758179 1533.004883,193.005356 
	C1518.837158,203.281860 1515.319458,218.215622 1517.140015,234.732056 
	C1520.439819,264.667267 1551.920532,279.613525 1575.645386,262.538086 
	C1586.603271,254.651489 1590.987793,243.260361 1591.882690,229.292389 
z"/>
<path fill="#4268D0" opacity="1.000000" stroke="none" 
	d="
M1556.919678,482.131897 
	C1565.859375,508.581146 1565.161987,534.057617 1551.009521,558.164185 
	C1529.575317,594.673889 1478.083252,598.140564 1452.752197,568.356201 
	C1452.452881,568.004333 1451.982910,567.797485 1450.718506,566.908020 
	C1450.718506,596.189087 1450.718506,624.808716 1450.718506,653.571777 
	C1438.299683,653.571777 1426.711304,653.571777 1414.778198,653.571777 
	C1414.778198,583.719543 1414.778198,514.140869 1414.778198,444.197571 
	C1426.601929,444.197571 1438.322998,444.197571 1450.500854,444.197571 
	C1450.500854,450.241547 1450.500854,456.186188 1450.500854,463.665436 
	C1466.762207,444.661102 1486.685669,438.430511 1509.417480,442.325287 
	C1532.469971,446.274994 1547.700684,460.563690 1556.919678,482.131897 
M1489.368286,473.028198 
	C1479.797241,472.801605 1471.273926,475.672119 1464.213257,482.153992 
	C1447.211182,497.762421 1445.701660,527.419189 1461.155029,544.657654 
	C1468.790039,553.174561 1478.552246,557.461060 1490.104248,556.502991 
	C1515.225586,554.419495 1527.845337,533.043457 1525.573730,509.733978 
	C1523.451294,487.955383 1510.483887,474.765533 1489.368286,473.028198 
z"/>
<path fill="#4167CF" opacity="1.000000" stroke="none" 
	d="
M1741.398560,489.489441 
	C1749.129028,464.858612 1764.245728,448.010071 1789.722168,442.800079 
	C1812.093262,438.225189 1831.984375,443.667175 1847.907227,460.874939 
	C1848.224976,461.218170 1848.673218,461.440460 1849.722290,462.195038 
	C1849.722290,439.996338 1849.722290,418.326569 1849.722290,396.248840 
	C1862.044312,396.248840 1873.767822,396.248840 1885.909058,396.248840 
	C1885.909058,459.202332 1885.909058,522.252808 1885.909058,585.652100 
	C1874.295532,585.652100 1862.543701,585.652100 1850.284302,585.652100 
	C1850.284302,579.494141 1850.284302,573.247192 1850.284302,566.315063 
	C1849.105835,566.978210 1848.438599,567.136475 1848.131714,567.557373 
	C1831.841797,589.909973 1799.620117,592.475952 1778.849976,583.382996 
	C1755.083130,572.978088 1743.360962,553.630249 1739.227783,528.998047 
	C1737.026978,515.881653 1737.733521,502.767120 1741.398560,489.489441 
M1775.869507,504.499329 
	C1775.980103,511.764374 1774.919067,519.286072 1776.442383,526.241760 
	C1779.745850,541.325806 1789.026367,551.777100 1804.477173,555.533936 
	C1819.181885,559.109314 1831.487793,554.408630 1841.061157,543.049255 
	C1849.149780,533.451721 1850.829590,521.813721 1849.960815,509.686188 
	C1848.538452,489.830414 1834.350708,474.573639 1816.042358,473.105133 
	C1796.281250,471.520111 1780.641357,483.451721 1775.869507,504.499329 
z"/>
<path fill="#4368D0" opacity="1.000000" stroke="none" 
	d="
M1210.739258,119.380135 
	C1213.692993,119.157211 1215.204468,119.617714 1215.200317,122.782249 
	C1215.123047,181.248489 1215.143677,239.714874 1215.143677,298.592163 
	C1203.231812,298.592163 1191.521729,298.592163 1179.242188,298.592163 
	C1179.242188,273.578369 1179.242188,248.524643 1179.242188,223.162994 
	C1153.436768,223.162994 1128.193848,223.162994 1102.407104,223.162994 
	C1102.407104,248.257950 1102.407104,273.324097 1102.407104,298.694336 
	C1090.277832,298.694336 1078.685059,298.694336 1066.697510,298.694336 
	C1066.697510,239.203781 1066.697510,179.684769 1066.697510,119.772034 
	C1078.338135,119.772034 1089.899902,119.772034 1102.062866,119.772034 
	C1102.062866,143.994553 1102.062866,168.202011 1102.062866,192.769806 
	C1127.881714,192.769806 1153.108276,192.769806 1178.915527,192.769806 
	C1178.915527,168.640396 1178.915527,144.418564 1178.915527,119.379456 
	C1189.739990,119.379456 1200.005249,119.379456 1210.739258,119.380135 
z"/>
<path fill="#4268D0" opacity="1.000000" stroke="none" 
	d="
M1215.143555,498.000000 
	C1215.143677,527.461060 1215.143677,556.422180 1215.143677,585.692078 
	C1203.145386,585.692078 1191.547852,585.692078 1179.376343,585.692078 
	C1179.376343,560.716125 1179.376343,535.657532 1179.376343,510.225891 
	C1153.573120,510.225891 1128.336670,510.225891 1102.534180,510.225891 
	C1102.534180,535.193359 1102.534180,560.248657 1102.534180,585.651367 
	C1090.261475,585.651367 1078.549683,585.651367 1066.570923,585.651367 
	C1066.570923,526.207336 1066.570923,466.952850 1066.570923,407.265015 
	C1078.329346,407.265015 1090.010376,407.265015 1102.201172,407.265015 
	C1102.201172,431.444489 1102.201172,455.524323 1102.201172,479.988922 
	C1127.929199,479.988922 1153.156860,479.988922 1179.042114,479.988922 
	C1179.042114,455.812744 1179.042114,431.598663 1179.042114,407.112518 
	C1191.278442,407.112518 1202.861572,407.112518 1215.143555,407.112518 
	C1215.143555,437.319122 1215.143555,467.409576 1215.143555,498.000000 
z"/>
<path fill="#4268D0" opacity="1.000000" stroke="none" 
	d="
M1912.336426,517.773315 
	C1911.942017,495.523041 1917.130005,475.612457 1932.760498,459.615021 
	C1946.821167,445.224335 1964.256226,439.940125 1984.141846,441.579071 
	C2000.304199,442.911163 2012.960449,450.660400 2024.278564,463.310730 
	C2024.278564,456.278656 2024.278564,450.386932 2024.278564,444.173492 
	C2036.534912,444.173492 2048.277100,444.173492 2060.405273,444.173492 
	C2060.405273,491.228424 2060.405273,538.267212 2060.405273,585.654907 
	C2048.625977,585.654907 2036.884033,585.654907 2024.580322,585.654907 
	C2024.580322,579.690735 2024.580322,573.619202 2024.580322,566.718323 
	C2023.200317,567.600525 2022.453003,567.863525 2022.018555,568.386475 
	C1997.449097,597.974060 1946.763062,594.339539 1924.905884,559.807068 
	C1916.839233,547.062317 1913.078003,533.140930 1912.336426,517.773315 
M2022.313599,529.570618 
	C2024.964478,520.589294 2025.192871,511.436432 2022.987183,502.446442 
	C2019.262085,487.263184 2009.886719,477.178650 1994.304199,473.934082 
	C1979.451782,470.841553 1966.910278,475.438019 1957.523804,487.303589 
	C1945.531982,502.462494 1946.486938,528.664062 1959.132935,543.535461 
	C1969.383423,555.589722 1985.551758,559.904663 2000.248291,554.112427 
	C2011.268677,549.769043 2018.451660,541.611389 2022.313599,529.570618 
z"/>
<path fill="#4268D0" opacity="1.000000" stroke="none" 
	d="
M2278.997314,541.138184 
	C2284.787598,541.138245 2290.078613,541.138245 2295.866699,541.138245 
	C2293.021729,552.112854 2287.601562,560.995728 2279.966064,568.353943 
	C2257.989502,589.533020 2231.779297,592.880859 2203.932129,583.982666 
	C2176.887207,575.340759 2162.988525,554.915955 2159.061279,527.496887 
	C2155.900635,505.430450 2159.112549,484.313690 2173.368652,466.514221 
	C2191.723877,443.597412 2216.796143,438.114349 2244.433350,442.682281 
	C2267.511230,446.496643 2284.429688,459.262054 2293.897949,481.032227 
	C2299.636475,494.227081 2300.046875,508.157898 2299.148193,522.252258 
	C2298.897217,526.188782 2296.266357,525.597900 2293.823975,525.598572 
	C2263.008789,525.607422 2232.193848,525.604309 2201.378662,525.604309 
	C2199.415527,525.604309 2197.452393,525.604370 2194.955811,525.604370 
	C2195.510010,536.937805 2199.838379,545.533264 2208.421631,552.085876 
	C2220.530029,561.329834 2245.600586,561.946838 2255.900879,543.915771 
	C2256.718262,542.484497 2259.226562,541.364990 2261.015381,541.262695 
	C2266.826172,540.930298 2272.668213,541.138245 2278.997314,541.138184 
M2246.835693,475.548065 
	C2224.429932,463.579529 2196.879150,475.980560 2195.524170,501.069092 
	C2217.599121,501.069092 2239.657471,501.069092 2262.110352,501.069092 
	C2261.979980,489.619629 2256.995117,481.474396 2246.835693,475.548065 
z"/>
<path fill="#4268D0" opacity="1.000000" stroke="none" 
	d="
M1590.111328,555.859497 
	C1577.002930,531.598999 1575.935303,506.802948 1585.934082,481.832397 
	C1596.550293,455.320007 1622.050537,440.106750 1652.685181,441.252777 
	C1677.421753,442.178101 1698.097290,451.028259 1711.344238,473.165161 
	C1721.021362,489.336792 1722.396118,506.923370 1720.256958,525.720703 
	C1685.296875,525.720703 1650.912354,525.720703 1616.516479,525.720703 
	C1617.017456,541.154297 1626.227417,553.012817 1640.473633,557.137756 
	C1655.182007,561.396545 1668.686890,556.523071 1677.200562,544.082520 
	C1678.093750,542.777283 1679.900757,541.297913 1681.309937,541.271179 
	C1693.104736,541.046814 1704.905518,541.143555 1716.754150,541.143555 
	C1714.545776,557.461609 1696.046753,580.098083 1670.721191,585.955627 
	C1639.519287,593.172302 1606.846069,583.867371 1590.111328,555.859497 
M1623.201660,483.766388 
	C1619.661133,488.875519 1617.029907,494.308899 1616.807373,500.897583 
	C1639.312134,500.897583 1661.466919,500.897583 1683.762207,500.897583 
	C1683.341797,491.827484 1680.284790,484.529785 1673.537842,479.027008 
	C1658.621826,466.861725 1634.652588,468.682037 1623.201660,483.766388 
z"/>
<path fill="#4268D0" opacity="1.000000" stroke="none" 
	d="
M1336.979492,259.867126 
	C1339.069824,254.808853 1342.646973,253.854691 1347.490967,254.026566 
	C1357.793457,254.392105 1368.117798,254.138214 1379.836548,254.138214 
	C1377.148438,259.839081 1375.324097,265.164398 1372.356201,269.749634 
	C1359.746948,289.230377 1341.761719,299.732849 1318.470093,301.021027 
	C1301.200439,301.976166 1284.958008,298.966553 1270.600220,288.762817 
	C1252.224731,275.703705 1243.265869,257.339630 1241.671631,235.301056 
	C1239.955688,211.579269 1245.035645,189.859482 1262.810181,172.674942 
	C1276.213379,159.716675 1292.828979,154.383728 1311.058594,154.302582 
	C1337.566406,154.184555 1359.744629,163.141449 1373.668579,187.104294 
	C1382.829346,202.869705 1384.299438,220.066147 1382.012329,238.604431 
	C1364.504150,238.604431 1347.263184,238.604416 1330.022095,238.604416 
	C1312.908325,238.604416 1295.794434,238.604431 1278.751221,238.604431 
	C1277.338013,250.386871 1285.888306,263.546234 1298.199463,268.741455 
	C1309.677124,273.584991 1328.000977,272.591736 1336.979492,259.867126 
M1300.500000,214.386368 
	C1315.387939,214.386368 1330.275879,214.386368 1345.121338,214.386368 
	C1345.495728,197.178574 1332.194336,184.674042 1313.815186,183.957947 
	C1294.756958,183.215393 1279.669189,196.000244 1278.622681,214.386780 
	C1285.593872,214.386780 1292.546997,214.386780 1300.500000,214.386368 
z"/>
<path fill="#4268CF" opacity="1.000000" stroke="none" 
	d="
M1248.222046,482.242584 
	C1262.127686,453.805237 1290.027954,438.481018 1321.737305,441.580414 
	C1353.770386,444.711548 1377.858887,463.657654 1385.182129,492.982300 
	C1392.353638,521.698914 1387.630127,548.089844 1365.366699,569.211609 
	C1347.683472,585.987915 1325.781616,590.517700 1302.333374,587.427246 
	C1260.828979,581.956848 1239.367432,547.902771 1242.003174,510.174652 
	C1242.652100,500.886261 1245.989136,491.785645 1248.222046,482.242584 
M1289.970825,547.540833 
	C1304.586426,562.697510 1334.478149,559.797729 1345.790283,538.115906 
	C1351.979248,526.253662 1352.509888,513.495300 1349.442139,500.657471 
	C1343.279663,474.869019 1313.953003,464.220581 1292.661865,479.993103 
	C1283.799194,486.558563 1279.661133,495.862915 1278.637573,506.553375 
	C1277.222412,521.333496 1278.234985,535.582031 1289.970825,547.540833 
z"/>
<path fill="#4268D0" opacity="1.000000" stroke="none" 
	d="
M1826.060791,267.000000 
	C1826.040649,250.507904 1826.224243,234.512024 1825.928223,218.525040 
	C1825.735107,208.082901 1823.123047,198.457275 1814.364014,191.475891 
	C1795.865967,176.731979 1766.732422,187.793228 1763.102661,211.062820 
	C1762.540649,214.666214 1762.280640,218.351654 1762.269409,222.000336 
	C1762.196533,245.655396 1762.231201,269.310791 1762.230835,292.966064 
	C1762.230835,294.770874 1762.230957,296.575714 1762.230957,298.690186 
	C1750.149170,298.690186 1738.438232,298.690186 1726.479004,298.690186 
	C1726.479004,251.357681 1726.479004,204.280319 1726.479004,156.791870 
	C1738.327759,156.791870 1750.037964,156.791870 1762.313599,156.791870 
	C1762.313599,162.185333 1762.313599,167.397690 1762.313599,172.154221 
	C1769.104370,167.712860 1775.243042,162.389145 1782.350220,159.278625 
	C1811.501343,146.520401 1858.822144,156.962875 1861.555420,208.557373 
	C1863.121948,238.126236 1861.924194,267.841644 1861.955078,297.491058 
	C1861.955322,297.788788 1861.741211,298.086700 1861.510254,298.691162 
	C1850.033081,298.691162 1838.444458,298.691162 1826.061157,298.691162 
	C1826.061157,288.333405 1826.061157,277.916687 1826.060791,267.000000 
z"/>
<path fill="#4268D0" opacity="1.000000" stroke="none" 
	d="
M2105.046387,586.002808 
	C2101.917969,586.002808 2099.282715,586.002808 2096.298828,586.002808 
	C2096.298828,522.601562 2096.298828,459.597321 2096.298828,396.212250 
	C2108.037354,396.212250 2119.722656,396.212250 2131.680420,396.212250 
	C2131.680420,459.345490 2131.680420,522.233948 2131.680420,586.002808 
	C2123.013184,586.002808 2114.276367,586.002808 2105.046387,586.002808 
z"/>
<path fill="#4268CF" opacity="1.000000" stroke="none" 
	d="
M1409.157959,168.000000 
	C1409.158203,148.205872 1409.158203,128.911758 1409.158203,109.226845 
	C1421.213257,109.226845 1432.901855,109.226845 1444.873169,109.226845 
	C1444.873169,172.402237 1444.873169,235.428925 1444.873169,298.728638 
	C1433.069214,298.728638 1421.477417,298.728638 1409.157593,298.728638 
	C1409.157593,255.300827 1409.157593,211.900421 1409.157959,168.000000 
z"/>
<path fill="#4368D0" opacity="1.000000" stroke="none" 
	d="
M1657.435913,156.397934 
	C1667.558472,156.381256 1677.223389,156.412094 1686.887817,156.355957 
	C1689.332764,156.341751 1690.991211,156.613342 1690.983276,159.786713 
	C1690.867920,205.774078 1690.842285,251.761688 1690.788086,297.749237 
	C1690.787964,297.900696 1690.686035,298.052032 1690.488037,298.604004 
	C1678.937744,298.604004 1667.237061,298.604004 1655.185303,298.604004 
	C1655.099365,296.913239 1654.946045,295.298889 1654.945557,293.684479 
	C1654.932617,249.693161 1654.911377,205.701797 1655.021240,161.710754 
	C1655.025757,159.943268 1656.297119,158.178955 1657.435913,156.397934 
z"/>
<path fill="#4368D0" opacity="1.000000" stroke="none" 
	d="
M1665.073975,138.131592 
	C1653.088135,132.889282 1648.052979,121.637131 1652.446167,110.643974 
	C1656.721802,99.944931 1670.299072,94.629715 1681.951294,99.093285 
	C1692.389038,103.091690 1697.623779,114.520569 1694.085083,125.356369 
	C1690.457153,136.465851 1676.760986,142.718094 1665.073975,138.131592 
z"/>
<path fill="#4F72D3" opacity="1.000000" stroke="none" 
	d="
M1601.445312,758.319092 
	C1601.220703,753.673340 1599.731689,750.671265 1594.883057,750.956116 
	C1590.208862,751.230713 1587.570435,753.966125 1587.405884,758.517090 
	C1587.279663,762.007751 1587.048096,765.497925 1587.042114,768.988647 
	C1587.036621,772.166748 1586.545044,775.840088 1591.848511,775.115662 
	C1590.244263,778.410645 1587.832153,778.780212 1576.963623,777.481689 
	C1583.526245,773.838928 1582.401245,768.366638 1582.037720,763.363220 
	C1581.687622,758.544189 1584.784546,752.491333 1577.687378,748.432312 
	C1580.818115,747.587158 1583.948975,746.742004 1587.401001,745.810120 
	C1587.744019,747.433289 1588.001221,748.650513 1588.414795,750.607849 
	C1594.761841,745.723267 1601.062256,743.612366 1606.896484,750.703552 
	C1609.510132,749.332764 1611.764038,747.907654 1614.196167,746.922485 
	C1620.403564,744.408142 1626.253906,748.193848 1626.336182,754.899414 
	C1626.391113,759.376953 1626.056519,763.878906 1625.587158,768.337341 
	C1625.184814,772.158142 1625.335205,775.326904 1630.575562,775.879700 
	C1626.218018,779.501709 1621.401245,777.332642 1616.499023,777.892639 
	C1623.273926,772.709045 1619.760254,765.570374 1620.782715,759.456116 
	C1621.636475,754.351135 1619.212402,751.184509 1615.442505,750.928101 
	C1610.675049,750.603882 1607.121216,753.862549 1606.891357,758.759094 
	C1606.735474,762.078369 1606.616333,765.400391 1606.390747,768.715088 
	C1606.154419,772.188354 1606.075562,775.492737 1611.422119,775.521606 
	C1611.282349,776.120789 1611.142700,776.719910 1611.002930,777.319092 
	C1606.561523,777.812988 1602.120117,778.306885 1597.678589,778.800781 
	C1603.710938,772.737000 1600.559326,765.344055 1601.445312,758.319092 
z"/>
<path fill="#4F72D3" opacity="1.000000" stroke="none" 
	d="
M1530.902954,749.545410 
	C1532.216553,749.366028 1533.289673,748.957031 1534.295166,748.421204 
	C1541.222656,744.729736 1543.589355,745.074829 1549.456543,750.929321 
	C1550.897827,750.070618 1552.498169,749.256958 1553.945068,748.227417 
	C1557.394409,745.773132 1560.936279,745.322205 1564.711670,747.387451 
	C1568.503540,749.461670 1569.098511,752.976196 1568.895142,756.798584 
	C1568.691772,760.618652 1568.393555,764.433716 1568.120605,768.249878 
	C1567.861572,771.870911 1567.626831,775.463257 1573.090088,776.037964 
	C1568.639648,779.251587 1563.973877,777.663696 1557.943237,778.377625 
	C1565.810181,771.450134 1562.699829,763.677429 1563.098389,756.578064 
	C1563.272461,753.478333 1561.588989,750.894165 1558.051758,751.061401 
	C1554.377441,751.235168 1550.251099,751.837036 1549.613770,756.381042 
	C1548.923706,761.299011 1548.811035,766.356873 1549.085693,771.318298 
	C1549.178101,772.986633 1551.229492,774.546570 1552.827026,776.770569 
	C1552.230591,778.315186 1552.230591,778.315186 1540.474121,778.358276 
	C1540.350098,778.059570 1540.045288,777.574646 1540.134277,777.486206 
	C1545.975708,771.682495 1543.877686,764.291016 1544.017090,757.423584 
	C1544.089478,753.852356 1542.810181,750.781494 1538.264282,750.919373 
	C1533.792725,751.054993 1530.245483,753.854980 1530.053467,757.599426 
	C1529.857544,761.420776 1529.800781,765.249207 1529.679443,769.074463 
	C1529.574097,772.389832 1529.125000,775.940369 1534.949829,775.481140 
	C1530.387329,779.668701 1525.628052,777.250732 1520.936035,777.671631 
	C1525.922485,773.438599 1524.749878,767.978760 1524.426392,762.948608 
	C1524.124512,758.257202 1527.112427,752.356445 1519.973755,749.628845 
	C1520.022827,749.216125 1520.072021,748.803406 1520.121094,748.390686 
	C1523.138550,747.630432 1526.140137,746.777039 1529.198486,746.256958 
	C1529.497437,746.206116 1530.145264,748.208130 1530.902954,749.545410 
z"/>
<path fill="#5173D3" opacity="1.000000" stroke="none" 
	d="
M1285.197876,778.783691 
	C1279.659546,779.105835 1277.967896,776.973938 1278.164062,771.710693 
	C1278.597778,760.076111 1278.437744,748.411133 1278.178833,736.766174 
	C1278.128540,734.498535 1276.531006,732.265381 1275.284912,729.095032 
	C1277.525269,728.519775 1280.961914,727.637329 1284.991577,726.602600 
	C1284.578613,734.622070 1284.199219,741.989990 1283.795044,749.836060 
	C1285.020996,749.407776 1285.807495,749.271973 1286.445679,748.889160 
	C1295.210693,743.631897 1304.244873,748.272827 1305.288696,758.592957 
	C1306.488403,770.454346 1298.200073,778.990662 1285.197876,778.783691 
M1289.779907,751.049561 
	C1287.746948,752.912659 1284.493408,754.474182 1283.942627,756.703491 
	C1282.890015,760.963867 1283.531250,765.616943 1283.170288,770.082886 
	C1282.922852,773.144165 1284.498413,774.212891 1287.056763,774.750916 
	C1293.437988,776.092773 1298.264404,772.705688 1299.569214,765.926392 
	C1301.068848,758.134827 1297.429321,752.072693 1289.779907,751.049561 
z"/>
<path fill="#4F72D3" opacity="1.000000" stroke="none" 
	d="
M1172.454102,747.258545 
	C1179.418091,752.319519 1181.467529,758.694214 1178.982056,766.697144 
	C1176.772949,773.809814 1170.093994,778.762024 1162.544434,778.885254 
	C1153.146362,779.038696 1153.146484,779.038696 1153.146362,769.918945 
	C1153.146362,759.613831 1153.343262,749.302612 1153.028076,739.007141 
	C1152.931396,735.855530 1151.429443,732.746948 1150.322632,728.713196 
	C1152.361572,728.286865 1155.707275,727.587280 1159.445679,726.805603 
	C1159.100830,734.645081 1158.785400,741.814758 1158.508545,748.107300 
	C1163.429199,747.734863 1167.773193,747.406067 1172.454102,747.258545 
M1169.055908,773.905273 
	C1175.267822,769.378540 1176.434814,758.612122 1170.745117,753.553894 
	C1168.902954,751.916016 1165.337646,751.163696 1162.832031,751.592590 
	C1159.737671,752.122375 1157.511353,754.479675 1157.984619,758.492188 
	C1158.389282,761.923340 1158.482300,765.503113 1157.967773,768.904480 
	C1157.198730,773.989929 1160.066895,774.872131 1163.932495,774.896545 
	C1165.391479,774.905762 1166.853271,774.452515 1169.055908,773.905273 
z"/>
<path fill="#4F72D3" opacity="1.000000" stroke="none" 
	d="
M1076.509277,737.106079 
	C1072.729492,737.536377 1070.616211,739.044678 1070.181641,742.706970 
	C1070.040527,743.895630 1068.733887,744.945984 1067.960449,746.059570 
	C1067.503296,745.867188 1067.046265,745.674805 1066.589233,745.482422 
	C1066.839478,741.640198 1067.089844,737.797974 1067.364624,733.580933 
	C1078.657104,733.580933 1089.702881,733.580933 1101.680664,733.580933 
	C1101.981689,736.760376 1102.383667,740.281677 1102.582275,743.814392 
	C1102.615845,744.408936 1101.770630,745.052917 1101.331421,745.674011 
	C1100.552612,745.019714 1099.209351,744.458252 1099.083984,743.696533 
	C1098.070312,737.533997 1093.955444,736.572021 1087.968872,737.293762 
	C1087.682617,742.198364 1087.294312,747.249817 1087.118408,752.308655 
	C1086.939087,757.462952 1086.928101,762.624390 1086.916626,767.782837 
	C1086.901855,774.398315 1087.194824,774.673096 1094.873291,775.191589 
	C1094.033691,776.436279 1093.480469,778.011414 1092.880127,778.029480 
	C1086.808594,778.212585 1080.729248,778.141235 1074.652100,778.141235 
	C1074.511353,777.655884 1074.370728,777.170593 1074.229980,776.685242 
	C1075.126343,776.139404 1075.975220,775.239624 1076.927490,775.111877 
	C1080.218872,774.670288 1081.506470,772.738708 1081.509521,769.661621 
	C1081.519897,759.020874 1081.513550,748.380127 1081.513550,737.303101 
	C1079.810425,737.214844 1078.378662,737.140625 1076.509277,737.106079 
z"/>
<path fill="#5173D3" opacity="1.000000" stroke="none" 
	d="
M1747.997925,747.290161 
	C1753.184326,746.979614 1758.370728,746.669128 1763.557251,746.358582 
	C1763.848877,746.697815 1764.140503,747.036987 1764.432129,747.376221 
	C1757.839111,750.009583 1760.356689,754.279785 1761.594727,758.301758 
	C1762.734009,762.002625 1763.916748,765.690247 1765.080322,769.383667 
	C1765.583374,769.395142 1766.086426,769.406677 1766.589478,769.418213 
	C1768.749023,763.778320 1771.207764,758.221741 1772.819092,752.429382 
	C1773.146484,751.252808 1770.280029,749.187866 1768.540161,747.121704 
	C1772.245117,745.850586 1776.559814,746.966125 1780.271240,746.769470 
	C1774.471924,759.852417 1768.906982,772.644836 1763.094971,785.323853 
	C1761.879639,787.975098 1760.068237,790.535522 1757.972168,792.558350 
	C1754.690186,795.725830 1751.587524,794.943420 1749.459229,790.859985 
	C1751.614624,789.778809 1754.255615,789.164124 1755.839966,787.526855 
	C1760.686401,782.518799 1763.776978,779.187561 1760.680298,771.850708 
	C1758.235718,766.058655 1756.291016,760.039551 1754.413940,754.030762 
	C1753.478882,751.037537 1751.844360,749.509094 1748.361572,749.325439 
	C1747.983032,748.519226 1747.990479,747.904724 1747.997925,747.290161 
z"/>
<path fill="#4F72D3" opacity="1.000000" stroke="none" 
	d="
M1681.909668,766.916504 
	C1682.068481,770.851929 1680.591675,775.224243 1686.779541,775.968933 
	C1682.676270,779.424377 1677.876587,777.357300 1672.910767,777.969543 
	C1678.331543,773.781982 1677.242554,768.188538 1676.867920,763.053711 
	C1676.515869,758.226318 1679.866943,752.034668 1672.524048,748.342896 
	C1675.578857,747.566467 1678.633667,746.789978 1682.069946,745.916565 
	C1682.505493,747.440430 1682.866699,748.704407 1683.352783,750.404846 
	C1685.033691,749.391602 1686.415161,748.528076 1687.825317,747.714050 
	C1695.002930,743.570923 1701.870605,747.455627 1701.874390,755.808411 
	C1701.876343,759.960510 1701.420166,764.115234 1701.113037,768.264465 
	C1700.842773,771.916260 1700.708740,775.432495 1706.277344,775.566406 
	C1706.150757,776.164429 1706.024292,776.762390 1705.897705,777.360352 
	C1701.456177,777.817627 1697.014648,778.274902 1692.568848,778.732666 
	C1692.386475,777.842529 1692.154541,777.340027 1692.278687,777.226624 
	C1698.853394,771.212708 1695.738037,763.382996 1696.057373,756.274475 
	C1696.212280,752.827332 1693.880371,750.510010 1690.255737,751.017517 
	C1686.909668,751.486023 1683.063477,752.079163 1682.463745,756.482849 
	C1682.016235,759.769958 1682.077515,763.126221 1681.909668,766.916504 
z"/>
<path fill="#5173D3" opacity="1.000000" stroke="none" 
	d="
M1638.299316,764.885925 
	C1638.371704,761.750122 1638.811523,759.036865 1638.409546,756.454651 
	C1638.027466,753.998596 1636.765625,751.679504 1635.503540,748.247803 
	C1637.485718,747.697266 1640.776001,746.783447 1644.713745,745.689758 
	C1644.305420,751.830017 1643.931030,757.350037 1643.576294,762.871338 
	C1643.491211,764.195801 1643.408936,765.525391 1643.432861,766.850769 
	C1643.501343,770.649292 1644.270142,774.009216 1649.100342,773.916138 
	C1653.638428,773.828735 1656.928223,770.582764 1656.976562,766.337830 
	C1657.003052,764.010986 1657.021606,761.682678 1656.973145,759.356567 
	C1656.888428,755.299011 1658.450195,750.423889 1651.144165,749.827881 
	C1651.400635,749.329346 1651.657104,748.830872 1651.913696,748.332336 
	C1655.438477,747.546082 1658.963379,746.759766 1663.005859,745.858032 
	C1662.625610,753.204956 1662.121460,760.067139 1661.957275,766.937500 
	C1661.796753,773.653381 1662.393555,774.060547 1669.568115,774.044922 
	C1667.579712,775.632812 1665.682861,778.325378 1663.577515,778.499756 
	C1661.444824,778.676392 1659.105957,776.362915 1656.857300,775.140137 
	C1656.956421,774.693420 1657.055542,774.246704 1657.154785,773.799988 
	C1655.342285,774.855164 1653.509155,775.876648 1651.720947,776.971313 
	C1644.864258,781.168762 1638.683472,777.904541 1638.311157,769.853333 
	C1638.242065,768.360413 1638.299805,766.861755 1638.299316,764.885925 
z"/>
<path fill="#4F72D3" opacity="1.000000" stroke="none" 
	d="
M1486.396729,758.763855 
	C1488.163696,753.226074 1491.010620,749.049744 1496.261475,747.107544 
	C1501.874634,745.031433 1507.270752,745.561401 1511.419067,750.140137 
	C1516.122314,755.331299 1516.525757,761.670227 1514.100220,767.908508 
	C1509.573975,779.549133 1496.249268,782.651855 1489.071655,773.905029 
	C1485.514526,769.570129 1485.686890,764.369446 1486.396729,758.763855 
M1502.995605,774.978760 
	C1510.693848,770.931030 1511.619995,756.196472 1504.479004,751.379211 
	C1499.999268,748.357300 1494.177368,749.927979 1492.966553,755.189636 
	C1492.006592,759.361206 1491.927734,764.028015 1492.727783,768.233337 
	C1493.600708,772.822571 1497.053589,775.555603 1502.995605,774.978760 
z"/>
<path fill="#4F72D3" opacity="1.000000" stroke="none" 
	d="
M1113.163330,746.878540 
	C1120.827148,745.086060 1126.135620,747.125366 1129.381104,752.876221 
	C1133.025146,759.333313 1131.401001,769.229065 1125.823608,774.552673 
	C1120.885498,779.266113 1113.850464,780.219238 1108.364990,776.871094 
	C1102.820801,773.487061 1101.500366,768.004150 1101.856445,762.177124 
	C1102.294312,755.013977 1105.715698,749.580933 1113.163330,746.878540 
M1120.508301,774.439514 
	C1126.173218,769.750488 1127.352295,759.327271 1122.199829,753.527344 
	C1120.442383,751.548950 1116.739990,750.151917 1114.135132,750.432007 
	C1112.013550,750.659973 1108.957764,753.533875 1108.523438,755.680908 
	C1107.702637,759.740784 1107.744995,764.301208 1108.747314,768.325256 
	C1110.156006,773.981873 1113.665039,775.563416 1120.508301,774.439514 
z"/>
<path fill="#5173D3" opacity="1.000000" stroke="none" 
	d="
M1247.505005,747.270020 
	C1249.219116,750.111694 1251.320801,752.653625 1251.763306,755.457458 
	C1252.292847,758.813293 1251.454102,762.397583 1251.120117,765.874512 
	C1250.421265,773.149231 1250.698975,773.485229 1257.751343,773.309204 
	C1254.588135,780.245422 1250.985474,780.627075 1245.682739,774.318298 
	C1242.395386,776.334106 1239.634277,780.167664 1234.755249,777.725220 
	C1231.071167,775.880920 1229.172729,772.895020 1230.134766,769.318542 
	C1230.710205,767.178955 1233.398193,765.323975 1235.537109,763.977051 
	C1237.289917,762.873291 1239.602905,762.420654 1241.723267,762.189758 
	C1245.947754,761.729797 1247.024170,759.390747 1246.124023,755.674133 
	C1245.247070,752.052551 1242.990967,750.148682 1239.191650,751.048523 
	C1236.976196,751.573242 1234.883911,752.617676 1231.831909,753.769531 
	C1231.993896,752.373108 1231.739746,750.608826 1232.309082,750.282776 
	C1236.880981,747.665222 1241.407715,744.351807 1247.505005,747.270020 
M1245.020264,771.176575 
	C1245.466675,768.899109 1245.913086,766.621582 1246.493652,763.659790 
	C1242.992432,764.682495 1240.280518,765.033997 1238.078125,766.283630 
	C1236.764038,767.029297 1235.167114,769.976868 1235.587280,770.550293 
	C1236.655762,772.008789 1238.694458,773.135620 1240.527222,773.515442 
	C1241.656982,773.749573 1243.121338,772.368774 1245.020264,771.176575 
z"/>
<path fill="#4F72D3" opacity="1.000000" stroke="none" 
	d="
M1194.243652,771.816406 
	C1199.340332,772.597839 1204.152344,773.105286 1208.873657,773.603149 
	C1208.222534,776.570984 1201.703369,779.710144 1196.502441,778.625244 
	C1186.276611,776.492188 1181.586060,764.841797 1186.942627,754.880249 
	C1191.124390,747.103394 1198.754028,744.021973 1205.622437,747.335938 
	C1209.325439,749.122559 1211.707275,754.623657 1210.019043,758.299316 
	C1209.566162,759.285400 1207.828369,760.157043 1206.625610,760.234985 
	C1202.816772,760.481873 1198.981812,760.298157 1195.157593,760.337524 
	C1190.356445,760.386902 1189.478271,761.401428 1190.895264,765.949585 
	C1191.515137,767.938904 1192.913940,769.685486 1194.243652,771.816406 
M1194.734985,750.892273 
	C1193.320312,752.634460 1191.905640,754.376648 1189.689575,757.105652 
	C1194.293945,757.105652 1197.257446,757.351746 1200.148804,757.001587 
	C1201.588745,756.827271 1202.896606,755.560730 1204.264160,754.788269 
	C1203.095703,753.203247 1202.232910,751.046326 1200.665161,750.208740 
	C1199.339600,749.500610 1197.197510,750.320679 1194.734985,750.892273 
z"/>
<path fill="#4F72D3" opacity="1.000000" stroke="none" 
	d="
M1408.156982,776.320740 
	C1401.596558,779.845581 1396.199097,779.545349 1391.740967,775.640015 
	C1387.082764,771.559509 1385.211060,764.051758 1387.510864,757.823669 
	C1389.494019,752.452942 1392.836670,748.247864 1398.569214,746.504272 
	C1406.020874,744.237854 1412.279297,748.778198 1412.190552,756.242432 
	C1412.157349,759.026367 1411.337158,760.517944 1408.151123,760.384521 
	C1403.046387,760.170715 1397.925903,760.327209 1392.913574,760.327209 
	C1391.739868,766.175476 1393.406738,771.667480 1397.824829,772.841431 
	C1401.976929,773.944763 1406.652710,773.077881 1412.269531,773.077881 
	C1410.617310,774.391113 1409.539062,775.248108 1408.156982,776.320740 
M1393.232910,756.838440 
	C1396.029419,756.929810 1398.862183,757.324402 1401.608276,756.995483 
	C1403.182129,756.806946 1404.615234,755.443298 1406.111694,754.608765 
	C1404.683105,753.024231 1403.479492,750.427429 1401.782715,750.050476 
	C1397.220093,749.037048 1394.228271,751.536926 1393.232910,756.838440 
z"/>
<path fill="#4F72D3" opacity="1.000000" stroke="none" 
	d="
M1327.570312,746.217834 
	C1330.051880,747.501892 1333.008911,748.261841 1333.986450,750.083801 
	C1335.277710,752.490662 1335.540894,755.809937 1335.118896,758.564392 
	C1334.985352,759.436768 1331.271118,760.065247 1329.146118,760.256348 
	C1326.005615,760.538696 1322.812500,760.476013 1319.657227,760.292297 
	C1316.101318,760.085266 1315.397217,761.692261 1315.933960,764.867126 
	C1317.051270,771.478271 1321.264404,774.749817 1327.908447,773.766785 
	C1330.125000,773.438660 1332.304321,772.857788 1334.771362,773.014465 
	C1332.220215,776.867676 1328.493164,778.796326 1324.042236,778.785767 
	C1314.473999,778.762939 1308.261108,769.518799 1310.599365,759.149780 
	C1312.382568,751.241943 1318.886475,746.144409 1327.570312,746.217834 
M1329.662109,753.851868 
	C1328.943604,749.881958 1326.073853,749.443420 1322.881836,749.941345 
	C1318.798950,750.578247 1316.671509,753.121704 1316.146362,757.607849 
	C1320.273193,757.375671 1324.054932,757.277771 1327.799561,756.853271 
	C1328.530151,756.770508 1329.116821,755.418945 1329.662109,753.851868 
z"/>
<path fill="#4F72D3" opacity="1.000000" stroke="none" 
	d="
M1468.460693,772.856567 
	C1472.787720,773.067749 1476.774902,773.067749 1480.677856,773.067749 
	C1479.798096,776.826294 1474.236938,779.713501 1469.146851,778.686035 
	C1458.832886,776.604126 1454.178955,764.344727 1459.880981,754.278076 
	C1464.216797,746.623474 1472.682373,743.999939 1481.989258,747.869446 
	C1481.219727,751.103516 1480.425659,754.440308 1479.498535,758.336853 
	C1478.116943,757.303040 1477.671875,757.142334 1477.636963,756.917908 
	C1477.113281,753.549683 1476.697021,750.145386 1472.125977,749.985657 
	C1467.451172,749.822266 1464.988037,752.561829 1464.083008,756.661133 
	C1462.778931,762.567261 1462.917236,768.295898 1468.460693,772.856567 
z"/>
<path fill="#5173D3" opacity="1.000000" stroke="none" 
	d="
M1427.906006,761.328552 
	C1427.816772,763.613159 1427.885986,765.461792 1427.620117,767.260925 
	C1426.925537,771.964661 1427.368164,775.750488 1433.867310,776.027588 
	C1429.092773,779.167786 1424.039062,777.543884 1418.626831,778.206909 
	C1424.916626,770.066101 1421.484375,761.482666 1422.077881,753.450867 
	C1422.175537,752.130432 1419.671265,750.617798 1417.723145,748.487305 
	C1421.190430,747.529297 1424.365967,746.651855 1427.945312,745.662903 
	C1427.945312,747.922424 1427.945312,749.663269 1427.945312,751.635681 
	C1431.703003,749.490356 1435.185303,747.502197 1438.667725,745.514038 
	C1439.104858,745.896790 1439.541992,746.279602 1439.979126,746.662354 
	C1439.557495,750.103760 1439.135864,753.545166 1438.733521,756.829102 
	C1436.083984,755.162231 1434.065918,752.887512 1432.695923,753.227173 
	C1429.185425,754.097351 1427.403198,756.994080 1427.906006,761.328552 
z"/>
<path fill="#5173D3" opacity="1.000000" stroke="none" 
	d="
M1354.764160,774.003296 
	C1356.518311,773.761292 1357.877075,773.529663 1360.237061,773.127380 
	C1357.181396,777.460999 1354.215454,779.519104 1349.758179,778.630249 
	C1345.458252,777.772705 1344.406128,774.475769 1344.250977,770.817383 
	C1344.046753,766.002563 1344.430176,761.151733 1344.030029,756.360779 
	C1343.817871,753.820740 1342.483154,751.374390 1341.655151,748.885742 
	C1341.012329,748.733398 1340.369507,748.581055 1339.726685,748.428772 
	C1342.886230,746.111938 1346.045776,743.795166 1349.812378,741.033325 
	C1350.123291,743.421204 1350.325439,744.973999 1350.563477,746.802490 
	C1353.462646,746.802490 1356.401245,746.802490 1359.282349,746.802490 
	C1360.775391,750.387939 1359.141968,750.917175 1356.226929,750.834290 
	C1349.474365,750.642212 1349.464844,750.730347 1349.420166,757.531677 
	C1349.396240,761.188965 1349.411255,764.846436 1349.390869,768.503723 
	C1349.371948,771.866943 1350.858154,773.849365 1354.764160,774.003296 
z"/>
<path fill="#5173D3" opacity="1.000000" stroke="none" 
	d="
M1382.732178,748.826904 
	C1379.505737,749.992615 1376.346313,750.745422 1372.024048,751.775330 
	C1372.024048,756.644714 1371.830811,762.065247 1372.076538,767.465881 
	C1372.343384,773.332092 1374.262695,774.616211 1380.119751,773.495911 
	C1380.716797,773.381775 1381.329712,773.350342 1382.061768,773.265930 
	C1380.917358,776.855530 1377.647339,778.982910 1373.975098,778.755310 
	C1370.200928,778.521362 1367.463501,776.868530 1367.257080,772.835632 
	C1366.977051,767.363770 1367.301025,761.854309 1366.873413,756.399597 
	C1366.674805,753.865112 1365.315674,751.421570 1364.482666,748.936829 
	C1363.853516,748.808411 1363.224487,748.679993 1362.595337,748.551636 
	C1365.713623,746.187134 1368.832031,743.822693 1372.609253,740.958740 
	C1372.899780,743.400513 1373.081055,744.924744 1373.226196,746.144470 
	C1376.525024,746.926575 1379.662231,747.670288 1382.732178,748.826904 
z"/>
<path fill="#4F72D3" opacity="1.000000" stroke="none" 
	d="
M1747.562744,747.136841 
	C1747.990479,747.904724 1747.983032,748.519226 1747.963135,749.440247 
	C1746.448608,750.066162 1744.883057,750.828247 1743.456421,750.623169 
	C1738.934204,749.973083 1737.553955,751.873108 1737.839966,756.158386 
	C1738.082275,759.789612 1737.629028,763.461609 1737.712280,767.110291 
	C1737.854736,773.359253 1739.697754,774.784851 1745.777710,773.652649 
	C1746.511353,773.516052 1747.250610,773.408569 1748.193604,773.815247 
	C1745.614624,776.767639 1743.007935,779.554321 1738.498047,778.622009 
	C1734.372681,777.769165 1732.876587,774.904297 1732.793945,771.012695 
	C1732.695190,766.366150 1732.906250,761.688904 1732.422974,757.083740 
	C1732.128052,754.274109 1730.777954,751.575317 1729.498169,747.560425 
	C1731.273804,746.205078 1734.329224,743.872986 1738.182373,740.932007 
	C1738.506592,743.319763 1738.710083,744.818359 1739.004028,746.983459 
	C1741.623779,746.983459 1744.375610,746.983459 1747.562744,747.136841 
z"/>
<path fill="#4F72D3" opacity="1.000000" stroke="none" 
	d="
M1710.735107,777.032227 
	C1713.812256,774.900879 1714.823486,772.279907 1714.593262,768.768616 
	C1714.322510,764.635132 1714.819702,760.442200 1714.420288,756.329712 
	C1714.183594,753.892151 1712.859375,751.560120 1711.654541,748.127258 
	C1713.677368,747.647034 1716.991699,746.860229 1720.698730,745.980164 
	C1720.350708,753.776367 1720.032715,761.183105 1719.683960,768.588440 
	C1719.519409,772.083008 1719.371826,775.525391 1724.523804,775.310486 
	C1722.842285,778.195984 1714.350952,779.247314 1710.735107,777.032227 
z"/>
<path fill="#4F72D3" opacity="1.000000" stroke="none" 
	d="
M1789.204834,777.363525 
	C1786.917725,777.450439 1784.738281,777.603149 1782.904053,776.880127 
	C1782.374268,776.671204 1782.211548,773.347107 1783.000244,772.523315 
	C1784.014404,771.464233 1786.367676,770.772888 1787.770264,771.187500 
	C1790.831665,772.092651 1791.105713,774.483887 1789.204834,777.363525 
z"/>
<path fill="#5173D3" opacity="1.000000" stroke="none" 
	d="
M1714.602173,731.515808 
	C1716.624756,731.382751 1718.384766,731.491089 1720.144897,731.599487 
	C1719.969482,733.275879 1720.311279,735.333252 1719.449097,736.503784 
	C1718.802002,737.382385 1716.607056,737.121033 1715.101318,737.367249 
	C1714.847534,735.497192 1714.593628,733.627197 1714.602173,731.515808 
z"/>
<path fill="#FEFEFF" opacity="1.000000" stroke="none" 
	d="
M592.810730,588.792175 
	C571.557800,587.652527 550.756592,586.849792 530.020142,585.222656 
	C515.897888,584.114502 504.308289,591.921875 502.277100,605.192139 
	C500.260376,618.367920 509.133240,629.979980 523.079773,632.114624 
	C574.996460,640.061218 627.140747,641.816345 679.538452,638.297607 
	C719.504211,635.613708 759.044678,630.463501 797.754333,619.925903 
	C810.750427,616.388123 823.546936,612.106628 836.575989,608.706421 
	C841.654846,607.381042 847.128662,607.068054 852.412415,607.132324 
	C863.795776,607.270752 869.543884,616.455872 865.242981,627.164917 
	C861.534912,636.397644 854.200745,642.312256 845.612366,646.222412 
	C812.125488,661.468384 778.758362,677.045105 744.770386,691.105652 
	C703.958130,707.989319 661.377258,718.842957 617.274170,722.721497 
	C585.802307,725.489136 554.365845,723.644653 522.995667,720.308105 
	C490.302856,716.830811 458.254272,710.277832 426.647675,701.258667 
	C398.197357,693.140137 371.261871,681.183105 344.149719,669.635925 
	C333.192261,664.969055 333.356628,664.961975 334.284973,653.122498 
	C337.305725,614.596069 340.279663,576.065369 343.053253,537.520630 
	C343.425110,532.352844 344.888550,529.452087 350.162872,527.379395 
	C373.616333,518.162598 397.459106,511.501709 422.978485,512.227966 
	C449.735229,512.989502 475.785919,518.066589 501.970856,523.201721 
	C540.159241,530.690796 578.661804,536.585510 617.052246,543.030334 
	C626.240173,544.572815 635.539185,545.445984 644.741028,546.915710 
	C653.686035,548.344299 659.659607,554.644653 660.266602,562.746338 
	C660.934937,571.667175 656.233398,579.384583 647.091858,581.427124 
	C634.460815,584.249268 621.576172,585.989685 608.752869,587.871155 
	C603.663818,588.617737 598.448059,588.501282 592.810730,588.792175 
z"/>
<path fill="#FDFDFF" opacity="1.000000" stroke="none" 
	d="
M247.999512,747.721558 
	C234.353851,747.722900 221.208191,747.722900 207.717361,747.722900 
	C207.717361,661.531860 207.717361,575.512207 207.717361,488.946167 
	C238.256378,488.946167 268.655762,488.946167 299.726196,488.946167 
	C293.172852,574.785828 286.603790,660.830994 279.970337,747.720154 
	C269.336395,747.720154 258.917938,747.720154 247.999512,747.721558 
z"/>
<path fill="#FEFEFF" opacity="1.000000" stroke="none" 
	d="
M700.308594,286.919556 
	C708.303345,325.206543 682.086060,363.079834 643.229858,369.907318 
	C613.590698,375.115295 583.774780,360.709412 569.108215,334.094666 
	C554.965515,308.430603 558.673523,275.485382 578.652893,253.683853 
	C597.581238,233.029266 621.028442,225.392929 648.288086,232.352432 
	C676.541870,239.565720 693.625610,258.175507 700.308594,286.919556 
z"/>
<path fill="#FEFEFF" opacity="1.000000" stroke="none" 
	d="
M799.664246,157.341797 
	C828.418213,187.091522 825.333435,233.906708 793.303162,259.682770 
	C781.185730,269.434174 767.737183,275.680603 752.091675,276.977386 
	C748.084778,277.309479 746.212097,276.052826 745.138062,272.002289 
	C735.876282,237.072693 715.124878,211.299789 682.847961,194.959488 
	C680.261780,193.650208 679.663269,192.336563 680.285645,189.551834 
	C686.897156,159.966721 715.442810,136.682114 745.824097,135.868240 
	C766.802979,135.306244 784.548828,142.448212 799.664246,157.341797 
z"/>
<path fill="#FDFEFF" opacity="1.000000" stroke="none" 
	d="
M1991.743042,253.640396 
	C1980.397095,268.000305 1966.381104,272.754395 1950.561035,267.846863 
	C1936.054321,263.346710 1925.368286,249.325714 1924.048462,233.042435 
	C1922.926758,219.205368 1925.263794,206.282867 1935.682739,196.283463 
	C1946.491699,185.909729 1959.582764,183.374832 1973.604370,188.157959 
	C1987.383057,192.858124 1995.278198,203.212692 1997.966675,217.323395 
	C2000.376831,229.972900 1999.016479,242.179337 1991.743042,253.640396 
z"/>
<path fill="#FDFEFF" opacity="1.000000" stroke="none" 
	d="
M1591.863281,229.748779 
	C1590.987793,243.260361 1586.603271,254.651489 1575.645386,262.538086 
	C1551.920532,279.613525 1520.439819,264.667267 1517.140015,234.732056 
	C1515.319458,218.215622 1518.837158,203.281860 1533.004883,193.005356 
	C1555.404175,176.758179 1586.436890,189.943359 1590.933350,217.372604 
	C1591.575806,221.292404 1591.582031,225.316544 1591.863281,229.748779 
z"/>
<path fill="#FDFEFF" opacity="1.000000" stroke="none" 
	d="
M1489.821289,473.042175 
	C1510.483887,474.765533 1523.451294,487.955383 1525.573730,509.733978 
	C1527.845337,533.043457 1515.225586,554.419495 1490.104248,556.502991 
	C1478.552246,557.461060 1468.790039,553.174561 1461.155029,544.657654 
	C1445.701660,527.419189 1447.211182,497.762421 1464.213257,482.153992 
	C1471.273926,475.672119 1479.797241,472.801605 1489.821289,473.042175 
z"/>
<path fill="#FDFEFF" opacity="1.000000" stroke="none" 
	d="
M1775.934326,504.076660 
	C1780.641357,483.451721 1796.281250,471.520111 1816.042358,473.105133 
	C1834.350708,474.573639 1848.538452,489.830414 1849.960815,509.686188 
	C1850.829590,521.813721 1849.149780,533.451721 1841.061157,543.049255 
	C1831.487793,554.408630 1819.181885,559.109314 1804.477173,555.533936 
	C1789.026367,551.777100 1779.745850,541.325806 1776.442383,526.241760 
	C1774.919067,519.286072 1775.980103,511.764374 1775.934326,504.076660 
z"/>
<path fill="#FDFEFF" opacity="1.000000" stroke="none" 
	d="
M2022.213379,529.962036 
	C2018.451660,541.611389 2011.268677,549.769043 2000.248291,554.112427 
	C1985.551758,559.904663 1969.383423,555.589722 1959.132935,543.535461 
	C1946.486938,528.664062 1945.531982,502.462494 1957.523804,487.303589 
	C1966.910278,475.438019 1979.451782,470.841553 1994.304199,473.934082 
	C2009.886719,477.178650 2019.262085,487.263184 2022.987183,502.446442 
	C2025.192871,511.436432 2024.964478,520.589294 2022.213379,529.962036 
z"/>
<path fill="#FDFDFF" opacity="1.000000" stroke="none" 
	d="
M2247.148682,475.743896 
	C2256.995117,481.474396 2261.979980,489.619629 2262.110352,501.069092 
	C2239.657471,501.069092 2217.599121,501.069092 2195.524170,501.069092 
	C2196.879150,475.980560 2224.429932,463.579529 2247.148682,475.743896 
z"/>
<path fill="#FDFDFF" opacity="1.000000" stroke="none" 
	d="
M1623.419189,483.480316 
	C1634.652588,468.682037 1658.621826,466.861725 1673.537842,479.027008 
	C1680.284790,484.529785 1683.341797,491.827484 1683.762207,500.897583 
	C1661.466919,500.897583 1639.312134,500.897583 1616.807373,500.897583 
	C1617.029907,494.308899 1619.661133,488.875519 1623.419189,483.480316 
z"/>
<path fill="#FDFDFF" opacity="1.000000" stroke="none" 
	d="
M1300.000000,214.386566 
	C1292.546997,214.386780 1285.593872,214.386780 1278.622681,214.386780 
	C1279.669189,196.000244 1294.756958,183.215393 1313.815186,183.957947 
	C1332.194336,184.674042 1345.495728,197.178574 1345.121338,214.386368 
	C1330.275879,214.386368 1315.387939,214.386368 1300.000000,214.386566 
z"/>
<path fill="#FDFEFF" opacity="1.000000" stroke="none" 
	d="
M1289.716064,547.288696 
	C1278.234985,535.582031 1277.222412,521.333496 1278.637573,506.553375 
	C1279.661133,495.862915 1283.799194,486.558563 1292.661865,479.993103 
	C1313.953003,464.220581 1343.279663,474.869019 1349.442139,500.657471 
	C1352.509888,513.495300 1351.979248,526.253662 1345.790283,538.115906 
	C1334.478149,559.797729 1304.586426,562.697510 1289.716064,547.288696 
z"/>
<path fill="#F8FAFD" opacity="1.000000" stroke="none" 
	d="
M1290.182251,751.005493 
	C1297.429321,752.072693 1301.068848,758.134827 1299.569214,765.926392 
	C1298.264404,772.705688 1293.437988,776.092773 1287.056763,774.750916 
	C1284.498413,774.212891 1282.922852,773.144165 1283.170288,770.082886 
	C1283.531250,765.616943 1282.890015,760.963867 1283.942627,756.703491 
	C1284.493408,754.474182 1287.746948,752.912659 1290.182251,751.005493 
z"/>
<path fill="#F8FAFD" opacity="1.000000" stroke="none" 
	d="
M1168.684814,774.057739 
	C1166.853271,774.452515 1165.391479,774.905762 1163.932495,774.896545 
	C1160.066895,774.872131 1157.198730,773.989929 1157.967773,768.904480 
	C1158.482300,765.503113 1158.389282,761.923340 1157.984619,758.492188 
	C1157.511353,754.479675 1159.737671,752.122375 1162.832031,751.592590 
	C1165.337646,751.163696 1168.902954,751.916016 1170.745117,753.553894 
	C1176.434814,758.612122 1175.267822,769.378540 1168.684814,774.057739 
z"/>
<path fill="#F8FAFD" opacity="1.000000" stroke="none" 
	d="
M1502.599854,775.045349 
	C1497.053589,775.555603 1493.600708,772.822571 1492.727783,768.233337 
	C1491.927734,764.028015 1492.006592,759.361206 1492.966553,755.189636 
	C1494.177368,749.927979 1499.999268,748.357300 1504.479004,751.379211 
	C1511.619995,756.196472 1510.693848,770.931030 1502.599854,775.045349 
z"/>
<path fill="#F8FAFD" opacity="1.000000" stroke="none" 
	d="
M1120.141602,774.600830 
	C1113.665039,775.563416 1110.156006,773.981873 1108.747314,768.325256 
	C1107.744995,764.301208 1107.702637,759.740784 1108.523438,755.680908 
	C1108.957764,753.533875 1112.013550,750.659973 1114.135132,750.432007 
	C1116.739990,750.151917 1120.442383,751.548950 1122.199829,753.527344 
	C1127.352295,759.327271 1126.173218,769.750488 1120.141602,774.600830 
z"/>
<path fill="#F8FAFD" opacity="1.000000" stroke="none" 
	d="
M1244.727783,771.444824 
	C1243.121338,772.368774 1241.656982,773.749573 1240.527222,773.515442 
	C1238.694458,773.135620 1236.655762,772.008789 1235.587280,770.550293 
	C1235.167114,769.976868 1236.764038,767.029297 1238.078125,766.283630 
	C1240.280518,765.033997 1242.992432,764.682495 1246.493652,763.659790 
	C1245.913086,766.621582 1245.466675,768.899109 1244.727783,771.444824 
z"/>
<path fill="#F8FAFD" opacity="1.000000" stroke="none" 
	d="
M1195.075928,750.678345 
	C1197.197510,750.320679 1199.339600,749.500610 1200.665161,750.208740 
	C1202.232910,751.046326 1203.095703,753.203247 1204.264160,754.788269 
	C1202.896606,755.560730 1201.588745,756.827271 1200.148804,757.001587 
	C1197.257446,757.351746 1194.293945,757.105652 1189.689575,757.105652 
	C1191.905640,754.376648 1193.320312,752.634460 1195.075928,750.678345 
z"/>
<path fill="#F8FAFD" opacity="1.000000" stroke="none" 
	d="
M1393.094238,756.427002 
	C1394.228271,751.536926 1397.220093,749.037048 1401.782715,750.050476 
	C1403.479492,750.427429 1404.683105,753.024231 1406.111694,754.608765 
	C1404.615234,755.443298 1403.182129,756.806946 1401.608276,756.995483 
	C1398.862183,757.324402 1396.029419,756.929810 1393.094238,756.427002 
z"/>
<path fill="#F8FAFD" opacity="1.000000" stroke="none" 
	d="
M1329.716064,754.252319 
	C1329.116821,755.418945 1328.530151,756.770508 1327.799561,756.853271 
	C1324.054932,757.277771 1320.273193,757.375671 1316.146362,757.607849 
	C1316.671509,753.121704 1318.798950,750.578247 1322.881836,749.941345 
	C1326.073853,749.443420 1328.943604,749.881958 1329.716064,754.252319 
z"/>
</svg>